<svg width="19" height="22" viewBox="0 0 19 22" fill="none" xmlns="http://www.w3.org/2000/svg">
<path d="M18.3604 9C18.3604 16 9.36035 22 9.36035 22C9.36035 22 0.360352 16 0.360352 9C0.360352 6.61305 1.30856 4.32387 2.99639 2.63604C4.68422 0.948211 6.9734 0 9.36035 0C11.7473 0 14.0365 0.948211 15.7243 2.63604C17.4121 4.32387 18.3604 6.61305 18.3604 9Z" fill="#E92828"/>
<path d="M9.36035 12C11.0172 12 12.3604 10.6569 12.3604 9C12.3604 7.34315 11.0172 6 9.36035 6C7.7035 6 6.36035 7.34315 6.36035 9C6.36035 10.6569 7.7035 12 9.36035 12Z" fill="#E92828"/>
<path d="M13.1104 8.6875C13.1104 10.7586 11.4314 12.4375 9.36035 12.4375C7.28928 12.4375 5.61035 10.7586 5.61035 8.6875C5.61035 6.61643 7.28928 4.9375 9.36035 4.9375C11.4314 4.9375 13.1104 6.61643 13.1104 8.6875Z" fill="white"/>
</svg>
