<svg width="25" height="24" viewBox="0 0 25 24" fill="none" xmlns="http://www.w3.org/2000/svg">
<path d="M21.3604 10C21.3604 17 12.3604 23 12.3604 23C12.3604 23 3.36035 17 3.36035 10C3.36035 7.61305 4.30856 5.32387 5.99639 3.63604C7.68422 1.94821 9.9734 1 12.3604 1C14.7473 1 17.0365 1.94821 18.7243 3.63604C20.4121 5.32387 21.3604 7.61305 21.3604 10Z" fill="#7A31DA"/>
<path d="M12.3604 13C14.0172 13 15.3604 11.6569 15.3604 10C15.3604 8.34315 14.0172 7 12.3604 7C10.7035 7 9.36035 8.34315 9.36035 10C9.36035 11.6569 10.7035 13 12.3604 13Z" fill="#7A31DA"/>
<circle cx="12.3604" cy="9.6875" r="3.75" fill="white"/>
</svg>
