<svg width="25" height="25" viewBox="0 0 25 25" fill="none" xmlns="http://www.w3.org/2000/svg">
<mask id="mask0_1_37" style="mask-type:alpha" maskUnits="userSpaceOnUse" x="0" y="0" width="25" height="25">
<rect x="0.5" y="0.5" width="24" height="24" fill="#D9D9D9"/>
</mask>
<g mask="url(#mask0_1_37)">
<path d="M12.5 13.6C13.3 13.6 13.975 13.325 14.525 12.775C15.075 12.225 15.35 11.55 15.35 10.75C15.35 9.95 15.075 9.275 14.525 8.725C13.975 8.175 13.3 7.9 12.5 7.9C11.7 7.9 11.025 8.175 10.475 8.725C9.925 9.275 9.65 9.95 9.65 10.75C9.65 11.55 9.925 12.225 10.475 12.775C11.025 13.325 11.7 13.6 12.5 13.6ZM6.3 20.2C5.86667 20.2 5.50833 20.0583 5.225 19.775C4.94167 19.4917 4.8 19.1333 4.8 18.7V6.3C4.8 5.86667 4.94167 5.50834 5.225 5.225C5.50833 4.94167 5.86667 4.8 6.3 4.8H18.7C19.1333 4.8 19.4917 4.94167 19.775 5.225C20.0583 5.50834 20.2 5.86667 20.2 6.3V18.7C20.2 19.1333 20.0583 19.4917 19.775 19.775C19.4917 20.0583 19.1333 20.2 18.7 20.2H6.3ZM6.05 19.5H18.95C19.1333 19.4 19.2583 19.3042 19.325 19.2125C19.3917 19.1208 19.45 19 19.5 18.85C18.6 17.9667 17.5542 17.2708 16.3625 16.7625C15.1708 16.2542 13.8833 16 12.5 16C11.1167 16 9.82917 16.2542 8.6375 16.7625C7.44583 17.2708 6.4 17.9667 5.5 18.85C5.55 19 5.60833 19.1208 5.675 19.2125C5.74167 19.3042 5.86667 19.4 6.05 19.5Z" fill="#1C1B1F"/>
</g>
</svg>
