<svg width="25" height="25" viewBox="0 0 25 25" fill="none" xmlns="http://www.w3.org/2000/svg">
<mask id="mask0_1_19" style="mask-type:alpha" maskUnits="userSpaceOnUse" x="0" y="0" width="25" height="25">
<rect x="0.5" y="0.5" width="24" height="24" fill="#D9D9D9"/>
</mask>
<g mask="url(#mask0_1_19)">
<path d="M18.15 19.35H18.85V16.85H21.35V16.15H18.85V13.65H18.15V16.15H15.65V16.85H18.15V19.35ZM18.5 20.2C17.4667 20.2 16.5917 19.8417 15.875 19.125C15.1583 18.4083 14.8 17.5333 14.8 16.5C14.8 15.4667 15.1583 14.5917 15.875 13.875C16.5917 13.1583 17.4667 12.8 18.5 12.8C19.5333 12.8 20.4083 13.1583 21.125 13.875C21.8417 14.5917 22.2 15.4667 22.2 16.5C22.2 17.5333 21.8417 18.4083 21.125 19.125C20.4083 19.8417 19.5333 20.2 18.5 20.2ZM5.8 18.2V8.15L12.5 3.075L19.2 8.15V9.825C19.0833 9.81667 18.9667 9.81042 18.85 9.80625C18.7333 9.80208 18.6167 9.8 18.5 9.8C16.6336 9.8 15.0503 10.4501 13.7502 11.7502C12.4501 13.0503 11.8 14.6336 11.8 16.5C11.8 16.7833 11.8208 17.0667 11.8625 17.35C11.9042 17.6333 11.9583 17.9167 12.025 18.2H5.8Z" fill="#1C1B1F"/>
</g>
</svg>
