<svg width="25" height="25" viewBox="0 0 25 25" fill="none" xmlns="http://www.w3.org/2000/svg">
<mask id="mask0_1_43" style="mask-type:alpha" maskUnits="userSpaceOnUse" x="0" y="0" width="25" height="25">
<rect x="0.5" y="0.5" width="24" height="24" fill="#D9D9D9"/>
</mask>
<g mask="url(#mask0_1_43)">
<path d="M18.5 8.5V5.5H15.5V4.8H18.5V1.8H19.2V4.8H22.2V5.5H19.2V8.5H18.5ZM12.5 11.85C12.8833 11.85 13.2042 11.7208 13.4625 11.4625C13.7208 11.2042 13.85 10.8833 13.85 10.5C13.85 10.1167 13.7208 9.79584 13.4625 9.5375C13.2042 9.27917 12.8833 9.15 12.5 9.15C12.1167 9.15 11.7958 9.27917 11.5375 9.5375C11.2792 9.79584 11.15 10.1167 11.15 10.5C11.15 10.8833 11.2792 11.2042 11.5375 11.4625C11.7958 11.7208 12.1167 11.85 12.5 11.85ZM12.5 22C10.0167 19.7667 8.17084 17.6958 6.9625 15.7875C5.75417 13.8792 5.15 12.1833 5.15 10.7C5.15 8.4 5.89167 6.56667 7.375 5.2C8.85834 3.83334 10.5667 3.15 12.5 3.15C12.8167 3.15 13.1542 3.175 13.5125 3.225C13.8708 3.275 14.2 3.34167 14.5 3.425V6.5H17.5V9.5H19.775L19.825 10.1C19.8417 10.3 19.85 10.5 19.85 10.7C19.85 12.1833 19.2458 13.8792 18.0375 15.7875C16.8292 17.6958 14.9833 19.7667 12.5 22Z" fill="#1C1B1F"/>
</g>
</svg>
