<svg width="25" height="25" viewBox="0 0 25 25" fill="none" xmlns="http://www.w3.org/2000/svg">
<mask id="mask0_1_25" style="mask-type:alpha" maskUnits="userSpaceOnUse" x="0" y="0" width="25" height="25">
<rect x="0.5" y="0.5" width="24" height="24" fill="#D9D9D9"/>
</mask>
<g mask="url(#mask0_1_25)">
<path d="M10.9 21.2L10.55 18.4C10.2 18.3 9.8125 18.1333 9.3875 17.9C8.9625 17.6667 8.60834 17.4167 8.325 17.15L5.75 18.25L4.15 15.45L6.375 13.775C6.34167 13.575 6.3125 13.3667 6.2875 13.15C6.2625 12.9333 6.25 12.725 6.25 12.525C6.25 12.3417 6.2625 12.1458 6.2875 11.9375C6.3125 11.7292 6.34167 11.4917 6.375 11.225L4.15 9.55L5.75 6.8L8.3 7.875C8.63333 7.59167 8.99584 7.3375 9.3875 7.1125C9.77917 6.8875 10.1583 6.71667 10.525 6.6L10.9 3.8H14.1L14.45 6.625C14.8833 6.775 15.2625 6.94583 15.5875 7.1375C15.9125 7.32917 16.25 7.575 16.6 7.875L19.25 6.8L20.85 9.55L18.525 11.3C18.5917 11.5333 18.6292 11.7458 18.6375 11.9375C18.6458 12.1292 18.65 12.3167 18.65 12.5C18.65 12.6667 18.6417 12.8458 18.625 13.0375C18.6083 13.2292 18.575 13.4667 18.525 13.75L20.8 15.45L19.2 18.25L16.6 17.125C16.25 17.425 15.9 17.6792 15.55 17.8875C15.2 18.0958 14.8333 18.2583 14.45 18.375L14.1 21.2H10.9ZM12.45 14.7C13.0667 14.7 13.5875 14.4875 14.0125 14.0625C14.4375 13.6375 14.65 13.1167 14.65 12.5C14.65 11.8833 14.4375 11.3625 14.0125 10.9375C13.5875 10.5125 13.0667 10.3 12.45 10.3C11.8333 10.3 11.3125 10.5125 10.8875 10.9375C10.4625 11.3625 10.25 11.8833 10.25 12.5C10.25 13.1167 10.4625 13.6375 10.8875 14.0625C11.3125 14.4875 11.8333 14.7 12.45 14.7Z" fill="#1C1B1F"/>
</g>
</svg>
