<svg width="25" height="25" viewBox="0 0 25 25" fill="none" xmlns="http://www.w3.org/2000/svg">
<mask id="mask0_1_13" style="mask-type:alpha" maskUnits="userSpaceOnUse" x="0" y="0" width="25" height="25">
<rect x="0.5" y="0.5" width="24" height="24" fill="#D9D9D9"/>
</mask>
<g mask="url(#mask0_1_13)">
<path d="M20.85 11.35V19.35C20.85 19.7833 20.7083 20.1417 20.425 20.425C20.1417 20.7083 19.7833 20.85 19.35 20.85H5.65C5.21666 20.85 4.85833 20.7083 4.575 20.425C4.29166 20.1417 4.15 19.7833 4.15 19.35V11.3C3.71666 11 3.40416 10.6042 3.2125 10.1125C3.02083 9.62083 3.01666 9.1 3.2 8.55L4.15 5.4C4.28333 5 4.49166 4.69167 4.775 4.475C5.05833 4.25833 5.41666 4.15 5.85 4.15H19.1C19.5333 4.15 19.8917 4.25 20.175 4.45C20.4583 4.65 20.6667 4.95 20.8 5.35L21.8 8.55C21.9833 9.1 21.9792 9.62917 21.7875 10.1375C21.5958 10.6458 21.2833 11.05 20.85 11.35ZM14.7 11.15C15.4 11.15 15.9208 10.9625 16.2625 10.5875C16.6042 10.2125 16.75 9.83334 16.7 9.45L16 4.85H12.85V9.2C12.85 9.73334 13.0333 10.1917 13.4 10.575C13.7667 10.9583 14.2 11.15 14.7 11.15ZM10.2 11.15C10.7833 11.15 11.2542 10.9583 11.6125 10.575C11.9708 10.1917 12.15 9.73334 12.15 9.2V4.85H9L8.3 9.55C8.26666 9.83333 8.41666 10.1708 8.75 10.5625C9.08333 10.9542 9.56666 11.15 10.2 11.15ZM5.75 11.15C6.23333 11.15 6.64166 10.9875 6.975 10.6625C7.30833 10.3375 7.51666 9.93334 7.6 9.45L8.25 4.85H5.85C5.56666 4.85 5.34166 4.9125 5.175 5.0375C5.00833 5.1625 4.88333 5.35 4.8 5.6L3.9 8.7C3.71666 9.28334 3.79166 9.8375 4.125 10.3625C4.45833 10.8875 5 11.15 5.75 11.15ZM19.25 11.15C19.8833 11.15 20.4 10.9042 20.8 10.4125C21.2 9.92084 21.3 9.35 21.1 8.7L20.15 5.55C20.0667 5.3 19.9417 5.12083 19.775 5.0125C19.6083 4.90417 19.3833 4.85 19.1 4.85H16.75L17.4 9.45C17.4833 9.93334 17.6917 10.3375 18.025 10.6625C18.3583 10.9875 18.7667 11.15 19.25 11.15Z" fill="#1C1B1F"/>
</g>
</svg>
