<svg width="28" height="12" viewBox="0 0 28 12" fill="none" xmlns="http://www.w3.org/2000/svg">
<path d="M2.07812 9.70117H2.21484C2.84375 9.70117 3.36784 9.61914 3.78711 9.45508C4.21094 9.28646 4.54818 9.05404 4.79883 8.75781C5.04948 8.46159 5.22949 8.11296 5.33887 7.71191C5.44824 7.31087 5.50293 6.87565 5.50293 6.40625V4.69043C5.50293 4.28483 5.45964 3.92936 5.37305 3.62402C5.29102 3.31413 5.17253 3.05664 5.01758 2.85156C4.86719 2.64193 4.69173 2.4847 4.49121 2.37988C4.29525 2.27507 4.08333 2.22266 3.85547 2.22266C3.60482 2.22266 3.37923 2.27962 3.17871 2.39355C2.98275 2.50293 2.81641 2.6556 2.67969 2.85156C2.54753 3.04297 2.44499 3.26855 2.37207 3.52832C2.30371 3.78353 2.26953 4.05697 2.26953 4.34863C2.26953 4.62207 2.30143 4.88639 2.36523 5.1416C2.43359 5.39225 2.53385 5.61556 2.66602 5.81152C2.79818 6.00749 2.96452 6.16243 3.16504 6.27637C3.36556 6.3903 3.60026 6.44727 3.86914 6.44727C4.12435 6.44727 4.35905 6.39941 4.57324 6.30371C4.78743 6.20345 4.97428 6.06901 5.13379 5.90039C5.29329 5.73177 5.41862 5.54264 5.50977 5.33301C5.60091 5.12337 5.65104 4.90918 5.66016 4.69043L6.28906 4.88184C6.28906 5.22819 6.21615 5.56999 6.07031 5.90723C5.92904 6.23991 5.73079 6.54525 5.47559 6.82324C5.22493 7.09668 4.93099 7.31543 4.59375 7.47949C4.26107 7.64355 3.89876 7.72559 3.50684 7.72559C3.03288 7.72559 2.61361 7.63672 2.24902 7.45898C1.889 7.27669 1.58822 7.0306 1.34668 6.7207C1.1097 6.41081 0.931966 6.05534 0.813477 5.6543C0.694987 5.25326 0.635742 4.83171 0.635742 4.38965C0.635742 3.91113 0.708659 3.46224 0.854492 3.04297C1.00033 2.6237 1.21224 2.25456 1.49023 1.93555C1.76823 1.61198 2.10547 1.36133 2.50195 1.18359C2.90299 1.0013 3.35645 0.910156 3.8623 0.910156C4.40007 0.910156 4.87174 1.01497 5.27734 1.22461C5.68294 1.43424 6.02474 1.72363 6.30273 2.09277C6.58073 2.46191 6.79036 2.8903 6.93164 3.37793C7.07292 3.86556 7.14355 4.38965 7.14355 4.9502V5.53125C7.14355 6.11914 7.09115 6.68652 6.98633 7.2334C6.88151 7.77572 6.71061 8.2793 6.47363 8.74414C6.24121 9.20443 5.93359 9.61003 5.55078 9.96094C5.17253 10.3073 4.70768 10.5785 4.15625 10.7744C3.60938 10.9658 2.9668 11.0615 2.22852 11.0615H2.07812V9.70117ZM9.10191 10.1797C9.10191 9.92448 9.1885 9.71029 9.36168 9.53711C9.53486 9.35938 9.76956 9.27051 10.0658 9.27051C10.3666 9.27051 10.6013 9.35938 10.7699 9.53711C10.9431 9.71029 11.0296 9.92448 11.0296 10.1797C11.0296 10.4349 10.9431 10.6491 10.7699 10.8223C10.6013 10.9954 10.3666 11.082 10.0658 11.082C9.76956 11.082 9.53486 10.9954 9.36168 10.8223C9.1885 10.6491 9.10191 10.4349 9.10191 10.1797ZM9.10875 4.35547C9.10875 4.10026 9.19534 3.88607 9.36852 3.71289C9.54169 3.53516 9.77639 3.44629 10.0726 3.44629C10.3734 3.44629 10.6081 3.53516 10.7767 3.71289C10.9499 3.88607 11.0365 4.10026 11.0365 4.35547C11.0365 4.61068 10.9499 4.82487 10.7767 4.99805C10.6081 5.17122 10.3734 5.25781 10.0726 5.25781C9.77639 5.25781 9.54169 5.17122 9.36852 4.99805C9.19534 4.82487 9.10875 4.61068 9.10875 4.35547ZM14.7517 5.27832H15.7361C16.1189 5.27832 16.4356 5.21224 16.6862 5.08008C16.9415 4.94792 17.1306 4.76562 17.2536 4.5332C17.3767 4.30078 17.4382 4.03418 17.4382 3.7334C17.4382 3.41895 17.3812 3.15007 17.2673 2.92676C17.1579 2.69889 16.9893 2.52344 16.7614 2.40039C16.5381 2.27734 16.2533 2.21582 15.907 2.21582C15.6153 2.21582 15.351 2.27507 15.114 2.39355C14.8816 2.50749 14.697 2.67155 14.5603 2.88574C14.4236 3.09538 14.3552 3.34603 14.3552 3.6377H12.7009C12.7009 3.10905 12.8399 2.63965 13.1179 2.22949C13.3959 1.81934 13.7741 1.49805 14.2527 1.26562C14.7357 1.02865 15.278 0.910156 15.8796 0.910156C16.5222 0.910156 17.0827 1.01725 17.5612 1.23145C18.0443 1.44108 18.4203 1.75553 18.6892 2.1748C18.9581 2.59408 19.0925 3.11361 19.0925 3.7334C19.0925 4.01595 19.0264 4.30306 18.8943 4.59473C18.7621 4.88639 18.5661 5.15299 18.3064 5.39453C18.0466 5.63151 17.723 5.8252 17.3357 5.97559C16.9483 6.12142 16.4994 6.19434 15.989 6.19434H14.7517V5.27832ZM14.7517 6.56348V5.66113H15.989C16.5723 5.66113 17.0691 5.72949 17.4792 5.86621C17.8939 6.00293 18.2312 6.19206 18.4909 6.43359C18.7507 6.67057 18.9398 6.94173 19.0583 7.24707C19.1814 7.55241 19.2429 7.87598 19.2429 8.21777C19.2429 8.68262 19.1586 9.09733 18.99 9.46191C18.8259 9.82194 18.5912 10.1273 18.2859 10.3779C17.9805 10.6286 17.6228 10.8177 17.2126 10.9453C16.807 11.0729 16.365 11.1367 15.8864 11.1367C15.4581 11.1367 15.0479 11.0775 14.656 10.959C14.264 10.8405 13.9131 10.665 13.6032 10.4326C13.2933 10.1956 13.0473 9.90169 12.865 9.55078C12.6872 9.19531 12.5984 8.78516 12.5984 8.32031H14.2458C14.2458 8.61654 14.3142 8.87858 14.4509 9.10645C14.5922 9.32975 14.7881 9.50521 15.0388 9.63281C15.294 9.76042 15.5857 9.82422 15.9138 9.82422C16.2601 9.82422 16.5586 9.7627 16.8093 9.63965C17.0599 9.5166 17.2514 9.33431 17.3835 9.09277C17.5202 8.85124 17.5886 8.55957 17.5886 8.21777C17.5886 7.8304 17.5134 7.51595 17.363 7.27441C17.2126 7.03288 16.9984 6.85514 16.7204 6.74121C16.4424 6.62272 16.1143 6.56348 15.7361 6.56348H14.7517ZM27.5382 5.18945V6.81641C27.5382 7.5957 27.4607 8.26107 27.3057 8.8125C27.1554 9.35938 26.9366 9.80371 26.6495 10.1455C26.3624 10.4873 26.0183 10.738 25.6173 10.8975C25.2208 11.057 24.7764 11.1367 24.2843 11.1367C23.8923 11.1367 23.5277 11.0866 23.1905 10.9863C22.8578 10.8861 22.557 10.7288 22.2882 10.5146C22.0193 10.3005 21.7891 10.0247 21.5977 9.6875C21.4109 9.3457 21.2651 8.93783 21.1602 8.46387C21.06 7.98991 21.0098 7.44076 21.0098 6.81641V5.18945C21.0098 4.4056 21.0873 3.74479 21.2423 3.20703C21.3972 2.66471 21.6182 2.22493 21.9054 1.8877C22.1925 1.5459 22.5343 1.29753 22.9307 1.14258C23.3318 0.98763 23.7784 0.910156 24.2706 0.910156C24.6671 0.910156 25.0317 0.960286 25.3643 1.06055C25.7016 1.15625 26.0024 1.30892 26.2667 1.51855C26.5356 1.72819 26.7634 2.00163 26.9503 2.33887C27.1417 2.67155 27.2875 3.07487 27.3878 3.54883C27.488 4.01823 27.5382 4.5651 27.5382 5.18945ZM25.8907 7.04883V4.94336C25.8907 4.54688 25.8679 4.19824 25.8223 3.89746C25.7768 3.59212 25.7084 3.33464 25.6173 3.125C25.5307 2.91081 25.4213 2.73763 25.2891 2.60547C25.157 2.46875 25.0066 2.37077 24.838 2.31152C24.6693 2.24772 24.4802 2.21582 24.2706 2.21582C24.0154 2.21582 23.7875 2.26595 23.587 2.36621C23.3865 2.46191 23.2179 2.61686 23.0811 2.83105C22.9444 3.04525 22.8396 3.3278 22.7667 3.67871C22.6983 4.02507 22.6641 4.44661 22.6641 4.94336V7.04883C22.6641 7.44987 22.6869 7.80306 22.7325 8.1084C22.7781 8.41374 22.8464 8.67578 22.9376 8.89453C23.0287 9.10872 23.1381 9.28646 23.2657 9.42773C23.3979 9.56445 23.5483 9.66471 23.7169 9.72852C23.8901 9.79232 24.0792 9.82422 24.2843 9.82422C24.544 9.82422 24.7742 9.77409 24.9747 9.67383C25.1752 9.57357 25.3438 9.41406 25.4805 9.19531C25.6173 8.97201 25.7198 8.68262 25.7882 8.32715C25.8565 7.97168 25.8907 7.54557 25.8907 7.04883Z" fill="#1F1F1F"/>
</svg>
