<?xml version="1.0" encoding="utf-8"?>
<!-- Generator: Adobe Illustrator 26.0.1, SVG Export Plug-In . SVG Version: 6.00 Build 0)  -->
<svg version="1.1" xmlns="http://www.w3.org/2000/svg" xmlns:xlink="http://www.w3.org/1999/xlink" x="0px" y="0px"
	 viewBox="0 0 1133.33 1133.35" style="enable-background:new 0 0 1133.33 1133.35;" xml:space="preserve">
<style type="text/css">
	.st0{fill:url(#SVGID_1_);}
	.st1{fill:url(#SVGID_00000041996553122889998040000003515440034177160124_);}
	.st2{fill:url(#SVGID_00000173160891132064997440000006753527275388825999_);}
	.st3{fill:url(#SVGID_00000044861503578520783030000017877540460981503928_);}
	.st4{fill:url(#SVGID_00000129201275082203870960000006548573260141531030_);}
	.st5{fill:url(#SVGID_00000030488319366245506070000003200613133489430689_);}
	.st6{fill:url(#SVGID_00000137852294625446078640000005637751252171342527_);}
	.st7{fill:url(#SVGID_00000024684268207459525000000003371301793235451326_);}
	.st8{fill:url(#SVGID_00000081645113953613813900000017246881636199312307_);}
	.st9{fill:url(#SVGID_00000096047348335674246950000008940938322198389415_);}
	.st10{fill:url(#SVGID_00000151516854799747414390000002998678892016829873_);}
	.st11{fill:url(#SVGID_00000150088781402483195630000008831525348159190145_);}
	.st12{fill:url(#SVGID_00000093172591484489266660000016465865445240768683_);}
	.st13{fill:url(#SVGID_00000095307368226221909550000008987619213186993082_);}
	.st14{fill:url(#SVGID_00000050631886199692406600000010587268192214704801_);}
	.st15{fill:url(#SVGID_00000167381324888669203260000009615954046535315343_);}
	.st16{fill:url(#SVGID_00000019672158976354292400000000698864100292142227_);}
	.st17{fill:url(#SVGID_00000068666846864382760190000002112006076467623576_);}
	.st18{fill:url(#SVGID_00000177476102491497332910000014819821967211147181_);}
	.st19{fill:url(#SVGID_00000174596276702437567080000009674943450203274918_);}
	.st20{fill:url(#SVGID_00000041274129688057335330000003372465962422212487_);}
	.st21{fill:url(#SVGID_00000014607788313981285860000016675868610677777849_);}
	.st22{fill:url(#SVGID_00000136400817683682638900000004950101117133909693_);}
	.st23{fill:url(#SVGID_00000165947085497148667990000017913554505690421388_);}
	.st24{fill:url(#SVGID_00000147215764712005673740000003193299341341910916_);}
	.st25{fill:url(#SVGID_00000038381586918337581060000007318892830746511501_);}
	.st26{fill:url(#SVGID_00000171704164281228240120000009613252943484803740_);}
	.st27{fill:url(#SVGID_00000050650976824598072320000010668572209710833027_);}
	.st28{fill:url(#SVGID_00000078026290927305354570000012385117919848695998_);}
	.st29{fill:url(#SVGID_00000150813289411833296300000000991692578812756889_);}
	.st30{fill:url(#SVGID_00000153698018923191711470000005731802758686919092_);}
	.st31{fill:url(#SVGID_00000138555658613924627950000009536579338874106536_);}
	.st32{fill:url(#SVGID_00000087410473240238270820000008192284196742204309_);}
	.st33{fill:url(#SVGID_00000044159211103951816220000000107475759111240636_);}
	.st34{fill:url(#SVGID_00000049917191790791258540000012275249329300430235_);}
	.st35{fill:url(#SVGID_00000102507439711008340010000001497804133565894813_);}
	.st36{fill:url(#SVGID_00000031168595392016924360000012370293702000885666_);}
	.st37{fill:url(#SVGID_00000108281646735989755260000002082297887013802903_);}
	.st38{fill:url(#SVGID_00000102540933038123790600000012440401261684782245_);}
	.st39{fill:url(#SVGID_00000121271416145956035790000003475797676781922731_);}
	.st40{fill:url(#SVGID_00000061433172403659183740000012793234747082043026_);}
	.st41{fill:url(#SVGID_00000026152159677327548760000000741242713330571914_);}
	.st42{fill:url(#SVGID_00000109023958929860657240000006470341610838741427_);}
	.st43{fill:url(#SVGID_00000172410398418261583940000004224609257125693583_);}
	.st44{fill:url(#SVGID_00000000910850014383407420000017898103204293324718_);}
	.st45{fill:url(#SVGID_00000173860782230687306370000009410517955352005292_);}
	.st46{fill:url(#SVGID_00000036936564148133795270000014390250113291144118_);}
	.st47{fill:url(#SVGID_00000019651566349851079120000011804650207917770421_);}
	.st48{fill:#684B3E;}
</style>
<g id="Flat_x5F_elegant_x5F_trees18">
	<g>
		<linearGradient id="SVGID_1_" gradientUnits="userSpaceOnUse" x1="564.1711" y1="-104.9944" x2="1059.274" y2="464.8416">
			<stop  offset="0" style="stop-color:#ABD150"/>
			<stop  offset="1" style="stop-color:#379124"/>
		</linearGradient>
		<path class="st0" d="M854.04,291.02c0,0,48.51,58.03,108.12-0.33C962.15,290.69,915,231.75,854.04,291.02z"/>
		
			<linearGradient id="SVGID_00000100355353515133900050000004618948591248310445_" gradientUnits="userSpaceOnUse" x1="564.7094" y1="-105.4629" x2="1059.814" y2="464.3749">
			<stop  offset="0" style="stop-color:#ABD150"/>
			<stop  offset="1" style="stop-color:#379124"/>
		</linearGradient>
		<path style="fill:url(#SVGID_00000100355353515133900050000004618948591248310445_);" d="M814.3,264.19c0,0,74.94,10.28,79.75-73
			C894.05,191.2,819.51,179.33,814.3,264.19z"/>
		
			<linearGradient id="SVGID_00000054243686966658845370000010090911951119480467_" gradientUnits="userSpaceOnUse" x1="66.6702" y1="327.2269" x2="561.8154" y2="897.1115">
			<stop  offset="0" style="stop-color:#ABD150"/>
			<stop  offset="1" style="stop-color:#379124"/>
		</linearGradient>
		<path style="fill:url(#SVGID_00000054243686966658845370000010090911951119480467_);" d="M154.86,509.36
			c0,0,70.5,27.42,94.54-52.45C249.4,456.91,179.67,428.03,154.86,509.36z"/>
		
			<linearGradient id="SVGID_00000042011594949397844720000010911594094275729053_" gradientUnits="userSpaceOnUse" x1="463.1169" y1="-17.2169" x2="958.2343" y2="552.6357">
			<stop  offset="0" style="stop-color:#ABD150"/>
			<stop  offset="1" style="stop-color:#379124"/>
		</linearGradient>
		<path style="fill:url(#SVGID_00000042011594949397844720000010911594094275729053_);" d="M679.98,165.72
			c0,0-67.55,34.01-24.31,105.34C655.67,271.06,723.8,238.58,679.98,165.72z"/>
		
			<linearGradient id="SVGID_00000080899723172773009670000003873920166344025765_" gradientUnits="userSpaceOnUse" x1="472.6668" y1="-25.4837" x2="967.7549" y2="544.3353">
			<stop  offset="0" style="stop-color:#ABD150"/>
			<stop  offset="1" style="stop-color:#379124"/>
		</linearGradient>
		<path style="fill:url(#SVGID_00000080899723172773009670000003873920166344025765_);" d="M757.74,221.82
			c0,0-75.58,2.68-66.09,85.55C691.65,307.36,767.12,306.32,757.74,221.82z"/>
		
			<linearGradient id="SVGID_00000038379417150803296900000004893048888613874348_" gradientUnits="userSpaceOnUse" x1="46.6028" y1="344.6329" x2="541.779" y2="914.5532">
			<stop  offset="0" style="stop-color:#ABD150"/>
			<stop  offset="1" style="stop-color:#379124"/>
		</linearGradient>
		<path style="fill:url(#SVGID_00000038379417150803296900000004893048888613874348_);" d="M277.5,540.79
			c0,0-56.48-50.3-106.89,16.15C170.61,556.95,225.88,608.35,277.5,540.79z"/>
		
			<linearGradient id="SVGID_00000129897033377195660970000009426286519851251373_" gradientUnits="userSpaceOnUse" x1="25.3413" y1="363.1769" x2="520.4261" y2="932.992">
			<stop  offset="0" style="stop-color:#ABD150"/>
			<stop  offset="1" style="stop-color:#379124"/>
		</linearGradient>
		<path style="fill:url(#SVGID_00000129897033377195660970000009426286519851251373_);" d="M324.62,625.24
			c0,0-74.91-10.45-79.91,72.81C244.71,698.05,319.22,710.08,324.62,625.24z"/>
		
			<linearGradient id="SVGID_00000042013370463849150980000005063334492537250975_" gradientUnits="userSpaceOnUse" x1="72.9723" y1="321.7082" x2="568.1342" y2="891.6119">
			<stop  offset="0" style="stop-color:#ABD150"/>
			<stop  offset="1" style="stop-color:#379124"/>
		</linearGradient>
		<path style="fill:url(#SVGID_00000042013370463849150980000005063334492537250975_);" d="M393.81,611.84
			c0,0-75.08,9.13-58.54,90.9C335.27,702.73,410.37,695.23,393.81,611.84z"/>
		
			<linearGradient id="SVGID_00000120528643138631673410000002427522328766180753_" gradientUnits="userSpaceOnUse" x1="382.7621" y1="52.5947" x2="877.8866" y2="622.4554">
			<stop  offset="0" style="stop-color:#ABD150"/>
			<stop  offset="1" style="stop-color:#379124"/>
		</linearGradient>
		<path style="fill:url(#SVGID_00000120528643138631673410000002427522328766180753_);" d="M729.61,385.13
			c0,0-67.56,34-24.31,105.34C705.3,490.48,773.42,458,729.61,385.13z"/>
		
			<linearGradient id="SVGID_00000167358337600641129350000012674243845987977607_" gradientUnits="userSpaceOnUse" x1="426.6154" y1="14.4966" x2="921.7299" y2="584.3458">
			<stop  offset="0" style="stop-color:#ABD150"/>
			<stop  offset="1" style="stop-color:#379124"/>
		</linearGradient>
		<path style="fill:url(#SVGID_00000167358337600641129350000012674243845987977607_);" d="M542.77,81.52
			c0,0-67.56,34.01-24.31,105.34C518.46,186.86,586.59,154.39,542.77,81.52z"/>
		
			<linearGradient id="SVGID_00000041257005732115801950000018414547074246584483_" gradientUnits="userSpaceOnUse" x1="359.5885" y1="72.7317" x2="854.7164" y2="642.5964">
			<stop  offset="0" style="stop-color:#ABD150"/>
			<stop  offset="1" style="stop-color:#379124"/>
		</linearGradient>
		<path style="fill:url(#SVGID_00000041257005732115801950000018414547074246584483_);" d="M438.03,136.89
			c0,0-35.35,66.86,41.23,99.94C479.25,236.83,515.95,170.88,438.03,136.89z"/>
		
			<linearGradient id="SVGID_00000172403557840832190910000013462449445731874466_" gradientUnits="userSpaceOnUse" x1="155.47" y1="250.0801" x2="650.5893" y2="819.9349">
			<stop  offset="0" style="stop-color:#ABD150"/>
			<stop  offset="1" style="stop-color:#379124"/>
		</linearGradient>
		<path style="fill:url(#SVGID_00000172403557840832190910000013462449445731874466_);" d="M223.78,384.67
			c0,0,41.59,63.17,107.44,11.96C331.22,396.63,291.08,332.72,223.78,384.67z"/>
		
			<linearGradient id="SVGID_00000037658875993080293420000009135164108513980583_" gradientUnits="userSpaceOnUse" x1="201.5603" y1="210.0184" x2="696.7003" y2="779.897">
			<stop  offset="0" style="stop-color:#ABD150"/>
			<stop  offset="1" style="stop-color:#379124"/>
		</linearGradient>
		<path style="fill:url(#SVGID_00000037658875993080293420000009135164108513980583_);" d="M368.32,461.17
			c0,0,45.08,60.73,107.94,5.91C476.26,467.08,432.59,405.52,368.32,461.17z"/>
		
			<linearGradient id="SVGID_00000050658303437930080700000007653319265807057849_" gradientUnits="userSpaceOnUse" x1="60.8319" y1="332.3631" x2="555.894" y2="902.1521">
			<stop  offset="0" style="stop-color:#ABD150"/>
			<stop  offset="1" style="stop-color:#379124"/>
		</linearGradient>
		<path style="fill:url(#SVGID_00000050658303437930080700000007653319265807057849_);" d="M232.39,603.8
			c0,0,61.62,43.85,104.5-27.7C336.89,576.11,276.35,531.04,232.39,603.8z"/>
		
			<linearGradient id="SVGID_00000147193357431511159410000008243012023480211848_" gradientUnits="userSpaceOnUse" x1="232.6117" y1="183.0416" x2="727.7731" y2="752.9449">
			<stop  offset="0" style="stop-color:#ABD150"/>
			<stop  offset="1" style="stop-color:#379124"/>
		</linearGradient>
		<path style="fill:url(#SVGID_00000147193357431511159410000008243012023480211848_);" d="M322.42,260.28
			c0,0-35.35,66.87,41.23,99.95C363.65,360.23,400.35,294.28,322.42,260.28z"/>
		
			<linearGradient id="SVGID_00000018208589123784753400000011830675390393323183_" gradientUnits="userSpaceOnUse" x1="262.0316" y1="157.4751" x2="757.1832" y2="727.367">
			<stop  offset="0" style="stop-color:#ABD150"/>
			<stop  offset="1" style="stop-color:#379124"/>
		</linearGradient>
		<path style="fill:url(#SVGID_00000018208589123784753400000011830675390393323183_);" d="M409.16,282.83
			c0,0-50.17,56.59,16.4,106.86C425.57,389.7,476.84,334.3,409.16,282.83z"/>
		
			<linearGradient id="SVGID_00000073696122407110409050000015861513939355559057_" gradientUnits="userSpaceOnUse" x1="204.5968" y1="207.3891" x2="699.7307" y2="777.2606">
			<stop  offset="0" style="stop-color:#ABD150"/>
			<stop  offset="1" style="stop-color:#379124"/>
		</linearGradient>
		<path style="fill:url(#SVGID_00000073696122407110409050000015861513939355559057_);" d="M447.45,497.91
			c0,0-2.48,75.58,80.85,71.76C528.3,569.67,532.4,494.3,447.45,497.91z"/>
		
			<linearGradient id="SVGID_00000014600843282263954130000007997789978996795008_" gradientUnits="userSpaceOnUse" x1="400.2929" y1="37.3237" x2="895.4799" y2="607.2565">
			<stop  offset="0" style="stop-color:#ABD150"/>
			<stop  offset="1" style="stop-color:#379124"/>
		</linearGradient>
		<path style="fill:url(#SVGID_00000014600843282263954130000007997789978996795008_);" d="M600.6,185.64
			c0,0-73.62-17.35-86.3,65.11C514.3,250.75,587.36,269.63,600.6,185.64z"/>
		
			<linearGradient id="SVGID_00000176037213094063021470000014101320743698928528_" gradientUnits="userSpaceOnUse" x1="376.0121" y1="58.4389" x2="871.163" y2="628.3301">
			<stop  offset="0" style="stop-color:#ABD150"/>
			<stop  offset="1" style="stop-color:#379124"/>
		</linearGradient>
		<path style="fill:url(#SVGID_00000176037213094063021470000014101320743698928528_);" d="M604.5,262.78
			c0,0-61.69,43.75-8.22,107.8C596.28,370.58,658.74,328.24,604.5,262.78z"/>
		
			<linearGradient id="SVGID_00000105398686376463016290000016094486517488112550_" gradientUnits="userSpaceOnUse" x1="320.2419" y1="106.9001" x2="815.3897" y2="676.7878">
			<stop  offset="0" style="stop-color:#ABD150"/>
			<stop  offset="1" style="stop-color:#379124"/>
		</linearGradient>
		<path style="fill:url(#SVGID_00000105398686376463016290000016094486517488112550_);" d="M562.51,310.25
			c0,0-73.27,18.77-46.28,97.71C516.23,407.96,589.71,390.8,562.51,310.25z"/>
		
			<linearGradient id="SVGID_00000142880485786381423360000010705598015253155202_" gradientUnits="userSpaceOnUse" x1="196.6186" y1="214.3287" x2="691.7382" y2="784.1838">
			<stop  offset="0" style="stop-color:#ABD150"/>
			<stop  offset="1" style="stop-color:#379124"/>
		</linearGradient>
		<path style="fill:url(#SVGID_00000142880485786381423360000010705598015253155202_);" d="M292.13,336.27c0,0,23.16-72-58-91.23
			C234.13,245.04,209.47,316.37,292.13,336.27z"/>
		
			<linearGradient id="SVGID_00000005951198152472797790000006692648755084814230_" gradientUnits="userSpaceOnUse" x1="503.7006" y1="-52.5365" x2="998.8578" y2="517.3619">
			<stop  offset="0" style="stop-color:#ABD150"/>
			<stop  offset="1" style="stop-color:#379124"/>
		</linearGradient>
		<path style="fill:url(#SVGID_00000005951198152472797790000006692648755084814230_);" d="M839.19,368.04
			c0,0,19.74,73.01,98.31,44.99C937.5,413.03,919.38,339.77,839.19,368.04z"/>
		
			<linearGradient id="SVGID_00000083795154366179440690000010056470550520409241_" gradientUnits="userSpaceOnUse" x1="341.9802" y1="88.0494" x2="837.0925" y2="657.8962">
			<stop  offset="0" style="stop-color:#ABD150"/>
			<stop  offset="1" style="stop-color:#379124"/>
		</linearGradient>
		<path style="fill:url(#SVGID_00000083795154366179440690000010056470550520409241_);" d="M760.05,582.22
			c0,0-0.62,75.64,82.58,69.78C842.63,652,844.87,576.55,760.05,582.22z"/>
		
			<linearGradient id="SVGID_00000033333229727628372930000013552984069067911101_" gradientUnits="userSpaceOnUse" x1="446.5543" y1="-2.8353" x2="941.6837" y2="567.031">
			<stop  offset="0" style="stop-color:#ABD150"/>
			<stop  offset="1" style="stop-color:#379124"/>
		</linearGradient>
		<path style="fill:url(#SVGID_00000033333229727628372930000013552984069067911101_);" d="M770.96,380.02
			c0,0-3.86,75.53,79.51,73.26C850.47,453.27,855.96,377.99,770.96,380.02z"/>
		
			<linearGradient id="SVGID_00000109709907281743806880000015194446215820004512_" gradientUnits="userSpaceOnUse" x1="322.2869" y1="105.1525" x2="817.4031" y2="675.0037">
			<stop  offset="0" style="stop-color:#ABD150"/>
			<stop  offset="1" style="stop-color:#379124"/>
		</linearGradient>
		<path style="fill:url(#SVGID_00000109709907281743806880000015194446215820004512_);" d="M660.35,436.08
			c0,0-61.33,44.27-7.35,107.86C652.99,543.94,715.13,501.08,660.35,436.08z"/>
		
			<linearGradient id="SVGID_00000163048329593642891190000003144721881378502789_" gradientUnits="userSpaceOnUse" x1="395.421" y1="41.6548" x2="890.5116" y2="611.4766">
			<stop  offset="0" style="stop-color:#ABD150"/>
			<stop  offset="1" style="stop-color:#379124"/>
		</linearGradient>
		<path style="fill:url(#SVGID_00000163048329593642891190000003144721881378502789_);" d="M827.52,573.41
			c0,0,19.74,73.01,98.31,44.99C925.82,618.41,907.7,545.14,827.52,573.41z"/>
		
			<linearGradient id="SVGID_00000110451113492327551660000012369120590063764668_" gradientUnits="userSpaceOnUse" x1="379.9814" y1="55.0418" x2="875.0873" y2="624.8811">
			<stop  offset="0" style="stop-color:#ABD150"/>
			<stop  offset="1" style="stop-color:#379124"/>
		</linearGradient>
		<path style="fill:url(#SVGID_00000110451113492327551660000012369120590063764668_);" d="M724.69,534.19
			c0,0,74.88,10.6,80.06-72.65C804.76,461.53,730.27,449.35,724.69,534.19z"/>
		
			<linearGradient id="SVGID_00000152231521544421927030000014785111248624753844_" gradientUnits="userSpaceOnUse" x1="408.0728" y1="30.4949" x2="903.2581" y2="600.4257">
			<stop  offset="0" style="stop-color:#ABD150"/>
			<stop  offset="1" style="stop-color:#379124"/>
		</linearGradient>
		<path style="fill:url(#SVGID_00000152231521544421927030000014785111248624753844_);" d="M787.35,541.98
			c0,0,62.81,42.13,103.7-30.58C891.04,511.41,829.29,468.03,787.35,541.98z"/>
		
			<linearGradient id="SVGID_00000163052850994546752620000014774334023975863199_" gradientUnits="userSpaceOnUse" x1="308.7367" y1="116.9615" x2="803.8119" y2="686.7654">
			<stop  offset="0" style="stop-color:#ABD150"/>
			<stop  offset="1" style="stop-color:#379124"/>
		</linearGradient>
		<path style="fill:url(#SVGID_00000163052850994546752620000014774334023975863199_);" d="M602.88,392.22
			c0,0-56.26-15.68-68.65,47.54C534.22,439.76,590.06,456.62,602.88,392.22z"/>
		
			<linearGradient id="SVGID_00000078761416236224793120000010467529787487801997_" gradientUnits="userSpaceOnUse" x1="314.922" y1="111.5538" x2="810.0306" y2="681.3962">
			<stop  offset="0" style="stop-color:#ABD150"/>
			<stop  offset="1" style="stop-color:#379124"/>
		</linearGradient>
		<path style="fill:url(#SVGID_00000078761416236224793120000010467529787487801997_);" d="M459.39,288.18
			c0,0,18.83-55.3-43.6-71.23C415.8,216.95,395.83,271.76,459.39,288.18z"/>
		
			<linearGradient id="SVGID_00000165932557166734171340000004967077236041874067_" gradientUnits="userSpaceOnUse" x1="142.389" y1="261.3894" x2="637.5764" y2="831.3225">
			<stop  offset="0" style="stop-color:#ABD150"/>
			<stop  offset="1" style="stop-color:#379124"/>
		</linearGradient>
		<path style="fill:url(#SVGID_00000165932557166734171340000004967077236041874067_);" d="M396.68,503.8c0,0-39.71-42.84-83.4,4.54
			C313.28,508.34,352.04,551.95,396.68,503.8z"/>
		
			<linearGradient id="SVGID_00000183939113751380742410000005626791992831337859_" gradientUnits="userSpaceOnUse" x1="124.6478" y1="276.8604" x2="619.7656" y2="846.7133">
			<stop  offset="0" style="stop-color:#ABD150"/>
			<stop  offset="1" style="stop-color:#379124"/>
		</linearGradient>
		<path style="fill:url(#SVGID_00000183939113751380742410000005626791992831337859_);" d="M332.81,455.08
			c0,0-53.04-24.46-75.36,35.99C257.45,491.07,309.91,516.62,332.81,455.08z"/>
		
			<linearGradient id="SVGID_00000024709406882197596050000003256584341957884050_" gradientUnits="userSpaceOnUse" x1="97.9868" y1="300.018" x2="593.1328" y2="869.9035">
			<stop  offset="0" style="stop-color:#ABD150"/>
			<stop  offset="1" style="stop-color:#379124"/>
		</linearGradient>
		<path style="fill:url(#SVGID_00000024709406882197596050000003256584341957884050_);" d="M235.26,422.83
			c0,0-23.77-53.35-80.4-22.6C154.86,400.23,177.48,454.01,235.26,422.83z"/>
		
			<linearGradient id="SVGID_00000134208780522208871740000000005301614018714023_" gradientUnits="userSpaceOnUse" x1="145.4866" y1="258.7496" x2="640.6258" y2="828.6273">
			<stop  offset="0" style="stop-color:#ABD150"/>
			<stop  offset="1" style="stop-color:#379124"/>
		</linearGradient>
		<path style="fill:url(#SVGID_00000134208780522208871740000000005301614018714023_);" d="M258.94,342.96
			c0,0-35.47-46.41-83.45-3.39C175.49,339.57,209.93,386.67,258.94,342.96z"/>
		
			<linearGradient id="SVGID_00000056388030393801222230000006892771841344871305_" gradientUnits="userSpaceOnUse" x1="160.2619" y1="245.9206" x2="655.359" y2="815.7498">
			<stop  offset="0" style="stop-color:#ABD150"/>
			<stop  offset="1" style="stop-color:#379124"/>
		</linearGradient>
		<path style="fill:url(#SVGID_00000056388030393801222230000006892771841344871305_);" d="M222.1,302.99
			c0,0-3.28-58.32-67.13-49.66C154.96,253.33,157,311.63,222.1,302.99z"/>
		
			<linearGradient id="SVGID_00000089535126710441783180000014812191120980073344_" gradientUnits="userSpaceOnUse" x1="275.6425" y1="145.6757" x2="770.7359" y2="715.5007">
			<stop  offset="0" style="stop-color:#ABD150"/>
			<stop  offset="1" style="stop-color:#379124"/>
		</linearGradient>
		<path style="fill:url(#SVGID_00000089535126710441783180000014812191120980073344_);" d="M384.31,291.09
			c0,0,27.46-51.55-31.62-77.29C352.69,213.8,324.19,264.71,384.31,291.09z"/>
		
			<linearGradient id="SVGID_00000116918152680401814710000007110390800630964126_" gradientUnits="userSpaceOnUse" x1="401.9084" y1="35.97" x2="897.0049" y2="605.7985">
			<stop  offset="0" style="stop-color:#ABD150"/>
			<stop  offset="1" style="stop-color:#379124"/>
		</linearGradient>
		<path style="fill:url(#SVGID_00000116918152680401814710000007110390800630964126_);" d="M478.06,143.96
			c0,0,27.46-51.56-31.62-77.29C446.44,66.67,417.94,117.57,478.06,143.96z"/>
		
			<linearGradient id="SVGID_00000088123963631407183650000008248786300993570999_" gradientUnits="userSpaceOnUse" x1="461.5879" y1="-15.8422" x2="956.6318" y2="553.9258">
			<stop  offset="0" style="stop-color:#ABD150"/>
			<stop  offset="1" style="stop-color:#379124"/>
		</linearGradient>
		<path style="fill:url(#SVGID_00000088123963631407183650000008248786300993570999_);" d="M565.56,166.88
			c0,0,55.78,17.31,69.99-45.55C635.55,121.32,580.2,102.88,565.56,166.88z"/>
		
			<linearGradient id="SVGID_00000091709851814803881240000000057622896320746153_" gradientUnits="userSpaceOnUse" x1="521.662" y1="-68.0555" x2="1016.7536" y2="501.7673">
			<stop  offset="0" style="stop-color:#ABD150"/>
			<stop  offset="1" style="stop-color:#379124"/>
		</linearGradient>
		<path style="fill:url(#SVGID_00000091709851814803881240000000057622896320746153_);" d="M714.12,206.09
			c0,0,52.98-24.61,21.32-80.74C735.44,125.35,682.03,148.81,714.12,206.09z"/>
		
			<linearGradient id="SVGID_00000057123456696545746080000003227471772266177700_" gradientUnits="userSpaceOnUse" x1="552.3031" y1="-94.6852" x2="1047.4115" y2="475.157">
			<stop  offset="0" style="stop-color:#ABD150"/>
			<stop  offset="1" style="stop-color:#379124"/>
		</linearGradient>
		<path style="fill:url(#SVGID_00000057123456696545746080000003227471772266177700_);" d="M896.53,340.76
			c0,0,27.95,51.28,81.95,16.1C978.47,356.87,951.63,305.07,896.53,340.76z"/>
		
			<linearGradient id="SVGID_00000031186809792468648960000002022400845288777097_" gradientUnits="userSpaceOnUse" x1="473.4922" y1="-26.2333" x2="968.6136" y2="543.624">
			<stop  offset="0" style="stop-color:#ABD150"/>
			<stop  offset="1" style="stop-color:#379124"/>
		</linearGradient>
		<path style="fill:url(#SVGID_00000031186809792468648960000002022400845288777097_);" d="M865.41,433.07
			c0,0-2.17,58.37,62.22,55.7C927.63,488.78,931.01,430.53,865.41,433.07z"/>
		
			<linearGradient id="SVGID_00000021085823248877528200000004420568148871889059_" gradientUnits="userSpaceOnUse" x1="446.2412" y1="-2.7186" x2="941.4481" y2="567.2368">
			<stop  offset="0" style="stop-color:#ABD150"/>
			<stop  offset="1" style="stop-color:#379124"/>
		</linearGradient>
		<path style="fill:url(#SVGID_00000021085823248877528200000004420568148871889059_);" d="M884.08,548.7c0,0,36.7,45.44,83.49,1.13
			C967.57,549.83,931.87,503.7,884.08,548.7z"/>
		
			<linearGradient id="SVGID_00000050631776447399741800000013331857524913164184_" gradientUnits="userSpaceOnUse" x1="267.4577" y1="152.793" x2="762.5687" y2="722.6382">
			<stop  offset="0" style="stop-color:#ABD150"/>
			<stop  offset="1" style="stop-color:#379124"/>
		</linearGradient>
		<path style="fill:url(#SVGID_00000050631776447399741800000013331857524913164184_);" d="M611.01,507.4c0,0-44.2,38.21,1.65,83.49
			C612.66,590.89,657.59,553.65,611.01,507.4z"/>
		
			<linearGradient id="SVGID_00000111889419479295958890000002508247872189818777_" gradientUnits="userSpaceOnUse" x1="112.6136" y1="287.2408" x2="607.7941" y2="857.1661">
			<stop  offset="0" style="stop-color:#ABD150"/>
			<stop  offset="1" style="stop-color:#379124"/>
		</linearGradient>
		<path style="fill:url(#SVGID_00000111889419479295958890000002508247872189818777_);" d="M443.92,613.03
			c0,0-54.9,19.94-28.22,78.59C415.7,691.61,470.96,672.83,443.92,613.03z"/>
		
			<linearGradient id="SVGID_00000052805550340039529050000014943943139144008122_" gradientUnits="userSpaceOnUse" x1="297.4447" y1="126.675" x2="792.5979" y2="696.5687">
			<stop  offset="0" style="stop-color:#ABD150"/>
			<stop  offset="1" style="stop-color:#379124"/>
		</linearGradient>
		<path style="fill:url(#SVGID_00000052805550340039529050000014943943139144008122_);" d="M709.64,599.88
			c0,0-10.76,57.41,53.33,64.26C762.97,664.13,774.88,607.03,709.64,599.88z"/>
		
			<linearGradient id="SVGID_00000134222335728470430730000002145037540713668796_" gradientUnits="userSpaceOnUse" x1="499.6609" y1="-48.9867" x2="994.7966" y2="520.887">
			<stop  offset="0" style="stop-color:#ABD150"/>
			<stop  offset="1" style="stop-color:#379124"/>
		</linearGradient>
		<path style="fill:url(#SVGID_00000134222335728470430730000002145037540713668796_);" d="M785.76,327.83
			c0,0,36.75,45.42,83.5,1.07C869.26,328.9,833.52,282.79,785.76,327.83z"/>
		
			<linearGradient id="SVGID_00000124850844887146866210000003017387039537880505_" gradientUnits="userSpaceOnUse" x1="538.7503" y1="-82.9167" x2="1033.8544" y2="486.9206">
			<stop  offset="0" style="stop-color:#ABD150"/>
			<stop  offset="1" style="stop-color:#379124"/>
		</linearGradient>
		<path style="fill:url(#SVGID_00000124850844887146866210000003017387039537880505_);" d="M800.02,165.59
			c0,0-52.67,25.25-20.34,80.99C779.68,246.58,832.81,222.46,800.02,165.59z"/>
		
			<linearGradient id="SVGID_00000065792907344678795310000014396237887007410588_" gradientUnits="userSpaceOnUse" x1="331.3019" y1="97.3072" x2="826.4502" y2="667.1954">
			<stop  offset="0" style="stop-color:#ABD150"/>
			<stop  offset="1" style="stop-color:#379124"/>
		</linearGradient>
		<path style="fill:url(#SVGID_00000065792907344678795310000014396237887007410588_);" d="M409.38,203.15
			c0,0,23.74-53.38-37.02-74.85C372.35,128.3,347.54,181.1,409.38,203.15z"/>
		<path class="st48" d="M677.19,371.07c38.8-37.68,91.3-68.89,162-80.06c0,0-108.23-10.51-199.99,85.24
			c11.23-42.99,9.64-85.6,9.64-85.6c-5.85,34.01-20.21,78.24-32.26,111.95c-20.59,26.72-39.69,59.81-55.74,100.71
			c-40.72-69.74-60.03-73.09-60.03-73.09s-6.03-26.61-8.12-67.35c30.52-79.82,111-112.93,111-112.93
			c-67.5,13.46-98.27,56.27-111.72,85.55c0-38.31,4.16-84.58,18.2-131.74c0,0-49.07,107.26-39.99,214.51c0,0-14.31-5.85-40.71-7.67
			c-26.18-10.86-68.88-30.35-124.73-61.88c0,0,33.34,42.59,100.17,61.53c-35.1,1.25-83.26,10.2-141.97,38.92
			c0,0,139.99-44.96,212.69-9.09c0,0,74.53,44.58,76.34,179.97c0,0-103.62-98.18-256.31-75.45c0,0,66.35,4.12,138.09,35.68
			c-68.07,3.27-99.43,31.57-99.43,31.57c62.08-18.62,110.45-16.02,140.65-10.33c27.04,16.2,53.2,36.92,75.18,63.52l-30.26,401.66
			h91.85c0,0,2.73-215.22-13.29-383.59c21.01-35.66,88.6-123.37,212.3-113.28c0,0-66.69-12.34-135.07,9.8
			c22.4-37.63,26.08-70.53,26.08-70.53c-21.04,39.88-46.86,69.39-65.42,87.59c-15.47,8.65-30.33,19.66-43.8,33.6
			c-4.1-31.26-9.05-59.46-15.05-82.46c8.69-32.94,30.51-97.28,78.39-153.89c72.59-33.02,167.32-29.49,167.32-29.49
			C752.1,353.36,705.14,361.51,677.19,371.07z"/>
	</g>
</g>
<g>
</g>
</svg>
