<svg width="40" height="41" viewBox="0 0 40 41" fill="none" xmlns="http://www.w3.org/2000/svg">
<path d="M40 20.0415C40 31.0872 31.0457 40.0415 20 40.0415C8.95431 40.0415 0 31.0872 0 20.0415C0 8.99581 8.95431 0.0415039 20 0.0415039C31.0457 0.0415039 40 8.99581 40 20.0415Z" fill="#F2DD68"/>
<path d="M8.1392 24.8762C7.66544 25.0476 7.4672 25.1921 7.27232 25.1753C6.64736 25.1148 6.02912 24.9972 5.41088 24.9031C5.74688 24.3588 5.94512 23.6061 6.41888 23.3105C8.22656 22.2017 10.1485 21.2945 11.973 20.1991C12.4098 19.937 12.981 19.2449 12.9037 18.8786C12.0032 14.7895 14.3082 12.6962 17.5606 11.1809C18.8341 10.5861 19.2406 9.66887 18.9819 8.71127L16.5594 6.9943L18.5586 5.47222L18.5922 5.60327L19.9866 3.84935L21.3877 5.60327L21.4179 5.47222L23.4339 6.9943L21.4347 8.51303C20.7022 9.58151 21.0685 10.5794 22.4427 11.1674C22.5939 11.2313 22.7082 11.3791 22.8594 11.4429C26.0379 12.8407 27.8254 14.9978 27.093 18.714C27.009 19.1373 27.5734 19.9034 28.0371 20.1857C29.7507 21.2306 31.592 22.0706 33.2922 23.1391C33.8667 23.4986 34.6362 24.4831 34.4984 24.8796C34.0918 26.0489 33.1746 25.3869 32.4253 25.0375C32.3413 24.9972 32.2136 25.0375 31.8642 25.061C31.8642 27.1442 31.807 29.2476 31.8843 31.3409C31.9414 32.8193 31.3198 33.3569 29.8986 33.2964C27.8826 33.2325 25.8666 33.2561 23.8506 33.2964C22.5704 33.3165 22.0059 32.742 22.053 31.4652C22.0933 30.4034 22.0899 29.3349 22.0362 28.2732C21.969 27.0165 21.2533 26.3076 19.9933 26.311C18.7333 26.3143 18.021 27.0233 17.9773 28.2833C17.9235 29.4021 17.9403 30.5244 17.9538 31.6433C17.9672 32.7621 17.4296 33.293 16.3208 33.2897C14.1368 33.2897 11.9528 33.2729 9.77216 33.2897C8.5256 33.2897 8.11568 32.6748 8.1392 31.5055C8.16944 29.382 8.1392 27.2618 8.1392 24.8762ZM29.7675 31.0217C29.7675 29.0057 29.6869 27.1577 29.7978 25.3097C29.875 24.0261 29.5693 23.1189 28.2858 22.7258C25.4197 21.8421 24.3613 19.9135 24.9258 17.0138C24.9258 16.9601 24.9258 16.9029 24.9258 16.8458C25.0803 15.7337 24.5326 15.1389 23.6926 14.3897C21.0853 12.0612 18.7434 12.0847 16.2133 14.4501C15.5413 15.0986 14.8424 15.5724 15.0507 16.6106C15.7059 19.8396 14.456 21.9161 11.3547 22.9946C10.891 23.1525 10.3064 23.7977 10.2862 24.2445C10.1754 26.4621 10.2358 28.6865 10.2358 30.9645H15.5917C15.8168 29.4122 15.8302 27.9405 16.2805 26.5965C16.7979 25.0476 18.1285 24.1807 19.7984 24.2277C24.3445 24.3554 24.2202 27.7692 24.237 31.0183L29.7675 31.0217Z" fill="white"/>
<path d="M21.6061 19.1743C21.3138 19.8698 21.2096 20.9114 20.6922 21.1903C19.4725 21.8623 18.6594 21.1634 18.6392 19.7018C18.6392 19.2012 18.6392 18.6938 18.6392 18.1999C18.6224 17.2423 18.9349 16.5199 20.0235 16.5199C21.1122 16.5199 21.391 17.286 21.3675 18.2301C21.3675 18.509 21.3675 18.7879 21.3675 19.0668L21.6061 19.1743Z" fill="white"/>
</svg>
