<svg width="41" height="40" viewBox="0 0 41 40" fill="none" xmlns="http://www.w3.org/2000/svg">
<path d="M40.8259 20C40.8259 31.0457 31.8716 40 20.8259 40C9.78023 40 0.825928 31.0457 0.825928 20C0.825928 8.95431 9.78023 0 20.8259 0C31.8716 0 40.8259 8.95431 40.8259 20Z" fill="#737373"/>
<path d="M8.96513 24.8347C8.49137 25.0061 8.29313 25.1506 8.09825 25.1338C7.47329 25.0733 6.85504 24.9557 6.2368 24.8616C6.5728 24.3173 6.77104 23.5646 7.2448 23.269C9.05248 22.1602 10.9744 21.253 12.7989 20.1576C13.2357 19.8955 13.8069 19.2034 13.7296 18.8371C12.8291 14.748 15.1341 12.6547 18.3866 11.1394C19.66 10.5446 20.0666 9.62736 19.8078 8.66976L17.3853 6.9528L19.3845 5.43072L19.4181 5.56176L20.8125 3.80784L22.2136 5.56176L22.2438 5.43072L24.2598 6.9528L22.2606 8.47152C21.5282 9.54001 21.8944 10.5379 23.2686 11.1259C23.4198 11.1898 23.5341 11.3376 23.6853 11.4014C26.8639 12.7992 28.6514 14.9563 27.9189 18.6725C27.8349 19.0958 28.3994 19.8619 28.8631 20.1442C30.5767 21.1891 32.4179 22.0291 34.1181 23.0976C34.6926 23.4571 35.4621 24.4416 35.3243 24.8381C34.9178 26.0074 34.0005 25.3454 33.2512 24.996C33.1672 24.9557 33.0395 24.996 32.6901 25.0195C32.6901 27.1027 32.633 29.2061 32.7102 31.2994C32.7674 32.7778 32.1458 33.3154 30.7245 33.2549C28.7085 33.191 26.6925 33.2146 24.6765 33.2549C23.3963 33.275 22.8318 32.7005 22.8789 31.4237C22.9192 30.3619 22.9158 29.2934 22.8621 28.2317C22.7949 26.975 22.0792 26.2661 20.8192 26.2694C19.5592 26.2728 18.8469 26.9818 18.8032 28.2418C18.7495 29.3606 18.7662 30.4829 18.7797 31.6018C18.7931 32.7206 18.2555 33.2515 17.1467 33.2482C14.9627 33.2482 12.7787 33.2314 10.5981 33.2482C9.35153 33.2482 8.94161 32.6333 8.96513 31.464C8.99537 29.3405 8.96513 27.2203 8.96513 24.8347ZM30.5935 30.9802C30.5935 28.9642 30.5128 27.1162 30.6237 25.2682C30.701 23.9846 30.3952 23.0774 29.1117 22.6843C26.2456 21.8006 25.1872 19.872 25.7517 16.9723C25.7517 16.9186 25.7517 16.8614 25.7517 16.8043C25.9062 15.6922 25.3586 15.0974 24.5186 14.3482C21.9112 12.0197 19.5693 12.0432 17.0392 14.4086C16.3672 15.0571 15.6683 15.5309 15.8766 16.5691C16.5318 19.7981 15.2819 21.8746 12.1806 22.9531C11.717 23.111 11.1323 23.7562 11.1122 24.203C11.0013 26.4206 11.0618 28.645 11.0618 30.923H16.4176C16.6427 29.3707 16.6562 27.899 17.1064 26.555C17.6238 25.0061 18.9544 24.1392 20.6243 24.1862C25.1704 24.3139 25.0461 27.7277 25.0629 30.9768L30.5935 30.9802Z" fill="white"/>
<path d="M22.432 19.1328C22.1397 19.8283 22.0355 20.8699 21.5181 21.1488C20.2984 21.8208 19.4853 21.1219 19.4651 19.6603C19.4651 19.1597 19.4651 18.6523 19.4651 18.1584C19.4483 17.2008 19.7608 16.4784 20.8494 16.4784C21.9381 16.4784 22.217 17.2445 22.1934 18.1886C22.1934 18.4675 22.1934 18.7464 22.1934 19.0253L22.432 19.1328Z" fill="white"/>
</svg>
