<svg width="41" height="41" viewBox="0 0 41 41" fill="none" xmlns="http://www.w3.org/2000/svg">
<path d="M40.5 20.3472C40.5 31.3929 31.5457 40.3472 20.5 40.3472C9.4543 40.3472 0.5 31.3929 0.5 20.3472C0.5 9.30147 9.4543 0.347168 20.5 0.347168C31.5457 0.347168 40.5 9.30147 40.5 20.3472Z" fill="#E9493E"/>
<path d="M20.4935 4.60973C21.4104 4.60973 22.3306 4.59005 23.2475 4.60973C25.6484 4.67533 27.3267 6.19724 27.21 8.61132C27.1226 10.3727 27.7479 11.4026 29.0957 12.3636C29.8928 12.9344 30.4889 13.8692 31.0106 14.7416C31.137 14.9797 31.2101 15.2429 31.2246 15.5128C31.2392 15.7826 31.1949 16.0524 31.0948 16.3029C29.9057 18.4776 30.2913 20.4226 31.5581 22.4136C32.4329 23.7879 31.8011 25.4869 30.4241 26.5792C29.7526 27.1199 29.2257 27.8225 28.8916 28.6226C27.5632 31.9223 25.833 34.789 22.1654 35.8091C19.1489 36.6488 16.7481 35.4253 14.7717 33.2704C13.9255 32.2851 13.2259 31.1801 12.6948 29.9904C11.9918 28.5078 11.5965 26.9728 10.0024 25.9888C8.73232 25.2048 8.8198 23.3221 9.5812 21.9904C10.0467 21.2375 10.3113 20.3752 10.3491 19.4878C10.2875 16.2898 11.0684 13.4624 13.2651 11.068C13.5891 10.74 13.6733 10.084 13.6863 9.58548C13.7964 5.83644 15.0114 4.61301 18.7212 4.60973H20.4935ZM29.0471 15.7945L29.2124 15.3124C28.3829 14.558 27.6345 13.6724 26.7014 13.082C25.535 12.3538 25.0425 11.442 25.2272 10.1103C25.2547 9.78288 25.2547 9.45369 25.2272 9.12629C25.1753 7.22717 24.6504 6.66957 22.8134 6.63677C21.3554 6.61053 19.8974 6.63677 18.4361 6.63677C16.1908 6.63677 15.7502 7.14189 15.6789 9.45429C15.653 10.2907 15.721 11.4584 15.2318 11.9044C12.7337 14.2004 12.1959 17.0672 12.3417 20.2422C12.387 21.2262 12.4065 22.1085 11.4604 22.8662C10.6115 23.5419 10.9128 24.7227 11.9885 25.008C13.0642 25.2934 13.3169 26.0216 13.6701 26.9268C14.2727 28.4816 14.8948 30.1019 15.8636 31.4336C18.4037 34.9333 22.5704 34.9038 25.104 31.3876C26.0339 30.0756 26.6722 28.5373 27.2327 27.022C27.5924 26.038 27.8516 25.2967 28.9791 24.9457C29.3776 24.8244 29.8247 23.332 29.6951 23.2368C28.2857 22.2102 28.613 20.7408 28.5514 19.3632C28.506 18.3595 28.0784 17.9134 26.9994 18.1036C23.672 18.6875 20.4708 18.166 17.2503 16.6933C16.9263 17.0869 16.6379 17.6608 16.194 17.8708C15.7502 18.0807 15.167 17.9036 14.6421 17.897C14.7004 17.4083 14.6421 16.8474 14.8462 16.4538C15.1807 15.83 15.6463 15.2881 16.2102 14.8663C16.625 14.5809 17.4317 14.3612 17.7849 14.5744C21.4104 16.7621 25.2239 16.3292 29.0471 15.7945Z" fill="white"/>
<path d="M19.2072 9.63797L20.5032 8.11933L21.5951 9.51661L23.7724 11.1336L21.5951 12.7343L20.5259 14.1316L19.042 12.4555L17.1758 11.0746L19.2072 9.63797Z" fill="white"/>
<path d="M17.1822 21.8855C17.7622 22.7744 18.4264 23.3484 18.3616 23.8207C18.2968 24.293 17.5095 25.0015 17.0364 25.0015C16.6217 25.0015 15.896 24.1782 15.8798 23.6895C15.8636 23.2008 16.5537 22.7055 17.1822 21.8855Z" fill="white"/>
<path d="M21.9969 23.801C22.8296 23.1647 23.3544 22.4562 23.8307 22.489C24.307 22.5218 25.0554 23.2795 25.0814 23.7518C25.1073 24.2241 24.3394 24.9687 23.8664 25.0146C23.3933 25.0605 22.8458 24.398 21.9969 23.801Z" fill="white"/>
</svg>
