<svg width="40" height="41" viewBox="0 0 40 41" fill="none" xmlns="http://www.w3.org/2000/svg">
<path d="M40 20.3472C40 31.3929 31.0457 40.3472 20 40.3472C8.9543 40.3472 0 31.3929 0 20.3472C0 9.30147 8.9543 0.347168 20 0.347168C31.0457 0.347168 40 9.30147 40 20.3472Z" fill="#FF1111"/>
<path d="M19.9935 4.60973C20.9104 4.60973 21.8306 4.59005 22.7475 4.60973C25.1484 4.67533 26.8267 6.19724 26.71 8.61132C26.6226 10.3727 27.2479 11.4026 28.5957 12.3636C29.3928 12.9344 29.9889 13.8692 30.5106 14.7416C30.637 14.9797 30.7101 15.2429 30.7246 15.5128C30.7392 15.7826 30.6949 16.0524 30.5948 16.3029C29.4057 18.4776 29.7913 20.4226 31.0581 22.4136C31.9329 23.7879 31.3011 25.4869 29.9241 26.5792C29.2526 27.1199 28.7257 27.8225 28.3916 28.6226C27.0632 31.9223 25.333 34.789 21.6654 35.8091C18.6489 36.6488 16.2481 35.4253 14.2717 33.2704C13.4255 32.2851 12.7259 31.1801 12.1948 29.9904C11.4918 28.5078 11.0965 26.9728 9.5024 25.9888C8.23232 25.2048 8.3198 23.3221 9.0812 21.9904C9.54674 21.2375 9.81132 20.3752 9.84908 19.4878C9.78752 16.2898 10.5684 13.4624 12.7651 11.068C13.0891 10.74 13.1733 10.084 13.1863 9.58548C13.2964 5.83644 14.5114 4.61301 18.2212 4.60973H19.9935ZM28.5471 15.7945L28.7124 15.3124C27.8829 14.558 27.1345 13.6724 26.2014 13.082C25.035 12.3538 24.5425 11.442 24.7272 10.1103C24.7547 9.78288 24.7547 9.45369 24.7272 9.12629C24.6753 7.22717 24.1504 6.66957 22.3134 6.63677C20.8554 6.61053 19.3974 6.63677 17.9361 6.63677C15.6908 6.63677 15.2502 7.14189 15.1789 9.45429C15.153 10.2907 15.221 11.4584 14.7318 11.9044C12.2337 14.2004 11.6959 17.0672 11.8417 20.2422C11.887 21.2262 11.9065 22.1085 10.9604 22.8662C10.1115 23.5419 10.4128 24.7227 11.4885 25.008C12.5642 25.2934 12.8169 26.0216 13.1701 26.9268C13.7727 28.4816 14.3948 30.1019 15.3636 31.4336C17.9037 34.9333 22.0704 34.9038 24.604 31.3876C25.5339 30.0756 26.1722 28.5373 26.7327 27.022C27.0924 26.038 27.3516 25.2967 28.4791 24.9457C28.8776 24.8244 29.3247 23.332 29.1951 23.2368C27.7857 22.2102 28.113 20.7408 28.0514 19.3632C28.006 18.3595 27.5784 17.9134 26.4994 18.1036C23.172 18.6875 19.9708 18.166 16.7503 16.6933C16.4263 17.0869 16.1379 17.6608 15.694 17.8708C15.2502 18.0807 14.667 17.9036 14.1421 17.897C14.2004 17.4083 14.1421 16.8474 14.3462 16.4538C14.6807 15.83 15.1463 15.2881 15.7102 14.8663C16.125 14.5809 16.9317 14.3612 17.2849 14.5744C20.9104 16.7621 24.7239 16.3292 28.5471 15.7945Z" fill="white"/>
<path d="M18.7072 9.63797L20.0032 8.11933L21.0951 9.51661L23.2724 11.1336L21.0951 12.7343L20.0259 14.1316L18.542 12.4555L16.6758 11.0746L18.7072 9.63797Z" fill="white"/>
<path d="M16.6822 21.8855C17.2622 22.7744 17.9264 23.3484 17.8616 23.8207C17.7968 24.293 17.0095 25.0015 16.5364 25.0015C16.1217 25.0015 15.396 24.1782 15.3798 23.6895C15.3636 23.2008 16.0537 22.7055 16.6822 21.8855Z" fill="white"/>
<path d="M21.4969 23.801C22.3296 23.1647 22.8544 22.4562 23.3307 22.489C23.807 22.5218 24.5554 23.2795 24.5814 23.7518C24.6073 24.2241 23.8394 24.9687 23.3664 25.0146C22.8933 25.0605 22.3458 24.398 21.4969 23.801Z" fill="white"/>
</svg>
