<svg width="41" height="41" viewBox="0 0 41 41" fill="none" xmlns="http://www.w3.org/2000/svg">
<path d="M40.8259 20.8689C40.8259 31.9146 31.8716 40.8689 20.8259 40.8689C9.78023 40.8689 0.825928 31.9146 0.825928 20.8689C0.825928 9.8232 9.78023 0.868896 20.8259 0.868896C31.8716 0.868896 40.8259 9.8232 40.8259 20.8689Z" fill="#737373"/>
<path d="M20.8195 5.13146C21.7364 5.13146 22.6565 5.11178 23.5735 5.13146C25.9743 5.19706 27.6526 6.71897 27.536 9.13305C27.4485 10.8944 28.0738 11.9243 29.4216 12.8854C30.2187 13.4561 30.8149 14.3909 31.3365 15.2634C31.4629 15.5014 31.536 15.7647 31.5506 16.0345C31.5651 16.3043 31.5208 16.5741 31.4207 16.8247C30.2317 18.9993 30.6172 20.9443 31.8841 22.9353C32.7589 24.3096 32.1271 26.0087 30.7501 27.1009C30.0785 27.6416 29.5516 28.3442 29.2175 29.1443C27.8891 32.444 26.159 35.3107 22.4913 36.3308C19.4749 37.1705 17.074 35.947 15.0976 33.7921C14.2515 32.8068 13.5518 31.7018 13.0208 30.5121C12.3177 29.0295 11.9224 27.4945 10.3283 26.5105C9.05825 25.7266 9.14573 23.8439 9.90713 22.5122C10.3727 21.7593 10.6372 20.897 10.675 20.0095C10.6134 16.8115 11.3943 13.9842 13.591 11.5898C13.915 11.2618 13.9992 10.6058 14.0122 10.1072C14.1224 6.35817 15.3374 5.13474 19.0472 5.13146H20.8195ZM29.3731 16.3163L29.5383 15.8341C28.7089 15.0797 27.9604 14.1941 27.0273 13.6037C25.8609 12.8755 25.3684 11.9637 25.5531 10.632C25.5806 10.3046 25.5806 9.97542 25.5531 9.64801C25.5012 7.7489 24.9764 7.1913 23.1393 7.1585C21.6813 7.13226 20.2233 7.1585 18.7621 7.1585C16.5167 7.1585 16.0761 7.66361 16.0048 9.97601C15.9789 10.8124 16.0469 11.9801 15.5577 12.4262C13.0597 14.7222 12.5218 17.5889 12.6676 20.7639C12.713 21.7479 12.7324 22.6302 11.7863 23.3879C10.9375 24.0636 11.2388 25.2444 12.3145 25.5298C13.3901 25.8151 13.6428 26.5433 13.996 27.4486C14.5986 29.0033 15.2207 30.6236 16.1895 31.9553C18.7297 35.4551 22.8963 35.4255 25.43 31.9094C26.3598 30.5974 26.9981 29.0591 27.5586 27.5437C27.9183 26.5597 28.1775 25.8184 29.305 25.4675C29.7035 25.3461 30.1507 23.8537 30.0211 23.7586C28.6117 22.7319 28.9389 21.2625 28.8773 19.8849C28.832 18.8812 28.4043 18.4351 27.3254 18.6254C23.9979 19.2092 20.7968 18.6877 17.5762 17.215C17.2522 17.6086 16.9639 18.1826 16.52 18.3925C16.0761 18.6024 15.4929 18.4253 14.968 18.4187C15.0263 17.93 14.968 17.3691 15.1721 16.9755C15.5066 16.3517 15.9722 15.8098 16.5362 15.388C16.9509 15.1027 17.7577 14.8829 18.1108 15.0961C21.7364 17.2838 25.5499 16.8509 29.3731 16.3163Z" fill="white"/>
<path d="M19.5332 10.1597L20.8292 8.64106L21.921 10.0383L24.0983 11.6554L21.921 13.256L20.8519 14.6533L19.3679 12.9772L17.5017 11.5963L19.5332 10.1597Z" fill="white"/>
<path d="M17.5082 22.4072C18.0881 23.2961 18.7523 23.8701 18.6875 24.3424C18.6227 24.8147 17.8354 25.5232 17.3624 25.5232C16.9476 25.5232 16.2219 24.6999 16.2057 24.2112C16.1895 23.7225 16.8796 23.2272 17.5082 22.4072Z" fill="white"/>
<path d="M22.3228 24.3227C23.1555 23.6864 23.6804 22.9779 24.1566 23.0107C24.6329 23.0435 25.3814 23.8012 25.4073 24.2735C25.4332 24.7459 24.6653 25.4904 24.1923 25.5363C23.7193 25.5823 23.1717 24.9197 22.3228 24.3227Z" fill="white"/>
</svg>
