<svg width="41" height="41" viewBox="0 0 41 41" fill="none" xmlns="http://www.w3.org/2000/svg">
<path d="M40.8259 20.8689C40.8259 31.9146 31.8716 40.8689 20.8259 40.8689C9.78023 40.8689 0.825928 31.9146 0.825928 20.8689C0.825928 9.8232 9.78023 0.868896 20.8259 0.868896C31.8716 0.868896 40.8259 9.8232 40.8259 20.8689Z" fill="#737373"/>
<path d="M16.9456 20.6795C16.7766 20.3236 16.6742 19.9115 16.4336 19.6222C15.8243 18.9105 15.1357 18.2679 14.5059 17.5742C13.976 16.9905 13.8224 16.2327 14.5059 15.8103C14.8899 15.5723 15.8064 15.6695 16.1443 15.9844C17.3607 17.1171 18.4991 18.3308 19.5517 19.6171C21.1517 21.5499 20.6397 23.9025 20.6576 26.1323C20.6576 26.3217 20.3222 26.6443 20.1046 26.6852C18.8451 26.8875 17.5856 27.0539 16.3056 27.1435C16.0803 27.1588 15.5888 26.6955 15.6195 26.5316C16.2032 23.5774 14.0067 21.9236 12.4861 20.0446C11.3648 18.6571 10.8144 17.2695 10.9501 15.5006C11.0627 13.9313 10.9731 12.3467 10.9731 10.7697C10.9731 9.74569 11.4621 9.12106 12.5091 9.11338C13.5562 9.1057 14.0451 9.73034 14.0451 10.7518C14.0451 11.9883 14.0451 13.2247 14.0451 14.4587C14.0675 14.7476 13.9976 15.0363 13.8454 15.283C12.8214 16.4017 13.2285 17.395 14.0733 18.3371C14.8797 19.2356 15.7322 20.0907 16.5642 20.9662L16.9456 20.6795Z" fill="white"/>
<path d="M25.9466 20.9815C26.9578 19.8116 28.0381 18.6929 28.9366 17.4462C29.208 17.0699 29.1926 16.2046 28.9366 15.7796C27.8384 13.9262 28.5168 11.978 28.5552 10.0862C28.5552 9.74826 29.592 9.13386 30.0912 9.18762C30.5904 9.24138 31.3712 9.95561 31.3917 10.4215C31.5146 12.7998 31.4736 15.1908 31.3917 17.5742C31.3763 18.0708 30.9975 18.5982 30.6775 19.0283C29.7661 20.2622 28.8035 21.4551 27.8486 22.6558C27.2624 23.3905 26.6762 24.0817 26.8042 25.1518C26.8323 25.3899 26.2922 25.8737 25.9619 25.9403C24.879 26.1502 23.7654 26.1963 22.6723 26.355C22.0042 26.4548 21.8301 26.2423 21.7149 25.587C20.9469 21.1505 23.5632 18.3806 26.5046 15.795C26.7837 15.5518 27.7488 15.5927 27.9255 15.8385C28.1815 16.2097 28.2659 17.0263 28.0253 17.3899C27.4646 18.2295 26.6429 18.8875 25.9773 19.6631C25.7392 19.9422 25.6547 20.3518 25.5011 20.6999L25.9466 20.9815Z" fill="white"/>
<path d="M15.1946 29.0635L14.593 28.6462C14.849 28.4439 15.105 28.0958 15.3814 28.0574C19.2095 27.5283 23.041 27.03 26.8759 26.5623C27.1754 26.5265 27.5133 26.8004 27.8359 26.931C27.6157 27.1358 27.4186 27.4865 27.1779 27.5198C23.2663 28.0497 19.3469 28.5361 15.1946 29.0635Z" fill="white"/>
<path d="M15.1664 30.8606L14.593 30.4075C14.8234 30.2155 15.0358 29.8955 15.2867 29.8545C19.1574 29.3254 23.0316 28.8254 26.9091 28.3543C27.1959 28.3185 27.5261 28.6103 27.8359 28.7588C27.6055 28.9508 27.3955 29.2836 27.1446 29.3195C23.233 29.8443 19.3136 30.3332 15.1664 30.8606Z" fill="white"/>
<path d="M15.1408 32.6577L14.593 32.1713C14.8336 31.9895 15.0538 31.6798 15.3149 31.6439C19.1839 31.1166 23.0572 30.6174 26.9347 30.1463C27.2138 30.1131 27.5338 30.4254 27.8333 30.579C27.6387 30.7607 27.4595 31.0731 27.2445 31.091C23.2893 31.6311 19.329 32.1252 15.1408 32.6577Z" fill="white"/>
</svg>
