<svg width="40" height="40" viewBox="0 0 40 40" fill="none" xmlns="http://www.w3.org/2000/svg">
<path d="M40 20C40 31.0457 31.0457 40 20 40C8.95431 40 0 31.0457 0 20C0 8.95431 8.95431 0 20 0C31.0457 0 40 8.95431 40 20Z" fill="#30B301"/>
<path d="M19.9336 33.3908C18.3912 33.3908 16.8456 33.4388 15.3032 33.3908C13.3832 33.3172 11.652 32.7508 10.276 31.3396C8.44557 29.4452 7.56556 26.7732 8.69196 23.8708C9.72556 21.2116 11.3416 18.914 12.9544 16.6068C13.4376 15.9124 14.0168 15.2852 14.5544 14.6196C14.8244 14.3214 15.0067 13.9544 15.0813 13.5591C15.1558 13.1638 15.1196 12.7556 14.9768 12.3796C14.628 11.378 14.3752 10.3444 14.084 9.32356C13.7416 8.13316 14.084 7.66276 15.332 7.59236C15.5976 7.59236 15.8632 7.59236 16.1288 7.59236C16.98 7.59236 17.764 7.56037 18.5512 7.04517C18.9724 6.74764 19.4755 6.58789 19.9912 6.58789C20.5069 6.58789 21.0099 6.74764 21.4312 7.04517C22.1565 7.50368 23.0173 7.69912 23.8696 7.59876C24.2413 7.56996 24.6147 7.56996 24.9864 7.59876C25.9752 7.69156 26.2664 8.07877 26.0104 9.06757C25.748 10.1524 25.5752 11.2788 25.1304 12.2868C24.6856 13.2948 25.0856 13.986 25.6392 14.7316C26.8072 16.3092 28.036 17.8516 29.0888 19.5028C30.2824 21.378 31.4568 23.2884 31.7416 25.5828C32.0808 28.3028 31.1336 30.4916 28.932 32.0596C27.6621 32.9603 26.1365 33.4292 24.58 33.3972C23.0216 33.378 21.4792 33.3908 19.9336 33.3908ZM20.0968 31.57C21.748 31.57 23.3992 31.57 25.0536 31.57C26.1235 31.56 27.1633 31.2151 28.0271 30.5838C28.8909 29.9524 29.5353 29.0663 29.8696 28.05C30.4168 26.5204 30.0872 25.1284 29.4504 23.7332C28.0296 20.6036 25.9816 17.8836 23.876 15.2084C22.8136 13.858 22.7752 13.8932 21.0856 13.89C20.1256 13.89 19.1656 13.9188 18.2056 13.89C17.9178 13.8598 17.6272 13.9096 17.3658 14.0338C17.1045 14.158 16.8824 14.3518 16.724 14.594C15.492 16.2612 14.0776 17.794 12.9704 19.5444C11.8672 21.2341 10.9489 23.0375 10.2312 24.9236C9.04716 28.1716 11.5272 31.522 14.98 31.57C16.6856 31.5892 18.3912 31.57 20.0968 31.57ZM20.0424 12.69H21.0024C23.3096 12.69 23.3096 12.69 23.8824 10.4148C24.084 9.63397 23.9784 9.45476 23.1688 9.43236C22.308 9.41316 21.524 9.40996 20.8264 8.71236C20.3464 8.23236 19.6104 8.32196 19.0728 8.79876C18.7034 9.17999 18.2043 9.40844 17.6744 9.43876C15.9112 9.50596 15.9112 9.53476 16.3496 11.2116C16.4008 11.4164 16.5 11.6116 16.5384 11.8196C16.5475 11.9515 16.5839 12.0802 16.6451 12.1974C16.7064 12.3147 16.7912 12.418 16.8942 12.5009C16.9973 12.5839 17.1164 12.6446 17.244 12.6793C17.3717 12.7141 17.5051 12.722 17.636 12.7028C18.4424 12.6548 19.2424 12.6804 20.0424 12.6804V12.69Z" fill="white"/>
<path d="M20.3144 18.5588C20.692 18.5588 20.7112 18.7252 20.7272 18.962C20.7624 19.4548 21.5816 19.6564 22.3816 19.938C22.6798 20.05 22.932 20.2584 23.0984 20.53C23.1665 20.6636 23.2078 20.8093 23.22 20.9588C23.2268 21.0134 23.2219 21.0688 23.2057 21.1214C23.1896 21.1741 23.1625 21.2226 23.1262 21.264C23.09 21.3054 23.0454 21.3387 22.9953 21.3617C22.9453 21.3846 22.891 21.3967 22.836 21.3972C22.6949 21.4062 22.5534 21.3866 22.42 21.3396C22.0808 21.2084 21.8088 20.9172 21.46 20.7636C20.9387 20.4868 20.3292 20.4271 19.764 20.5972C19.5717 20.6665 19.3983 20.7799 19.2577 20.9282C19.1171 21.0766 19.0133 21.2558 18.9544 21.4516C18.8787 21.6155 18.8525 21.7979 18.8793 21.9765C18.906 22.155 18.9844 22.3219 19.1048 22.4564C19.2776 22.6708 19.9656 22.834 20.2664 22.9236C20.724 23.0548 21.1944 23.1412 21.6552 23.2628C22.8552 23.5828 23.604 24.2932 23.652 25.2596C23.7096 26.3988 23.044 27.1284 22.1096 27.6596C21.7064 27.8868 20.9256 27.9412 20.9256 28.3572C20.9347 28.4125 20.932 28.4692 20.9177 28.5234C20.9033 28.5776 20.8777 28.6282 20.8423 28.6717C20.807 28.7153 20.7629 28.7509 20.7128 28.7761C20.6627 28.8014 20.6079 28.8158 20.5518 28.8183C20.4958 28.8208 20.4399 28.8114 20.3877 28.7907C20.3356 28.77 20.2885 28.7385 20.2494 28.6983C20.2103 28.658 20.1802 28.6099 20.1611 28.5572C20.142 28.5045 20.1342 28.4483 20.1384 28.3924C20.1384 27.9956 19.3864 27.858 18.9576 27.7268C18.6504 27.6425 18.363 27.4981 18.112 27.302C17.861 27.1059 17.6514 26.862 17.4952 26.5844C17.4521 26.4927 17.4313 26.3921 17.4347 26.2909C17.438 26.1896 17.4653 26.0906 17.5144 26.002C17.5836 25.9288 17.6696 25.8736 17.765 25.8413C17.8603 25.8089 17.9622 25.8004 18.0616 25.8164C18.398 25.9578 18.7143 26.1429 19.0024 26.3668C19.3306 26.6366 19.7246 26.8144 20.144 26.8819C20.5635 26.9494 20.9934 26.9041 21.3896 26.7508C21.6192 26.6826 21.8203 26.5413 21.9624 26.3484C22.1045 26.1555 22.1797 25.9215 22.1768 25.682C22.2056 25.4405 22.1451 25.1968 22.0065 24.997C21.868 24.7971 21.661 24.6549 21.4248 24.5972C20.8232 24.3988 20.1768 24.3156 19.5976 24.0692C19.0184 23.8228 18.2824 23.5284 17.8504 23.0484C17.1656 22.2804 17.2936 20.7412 18.1704 20.1684C19.0024 19.618 20.02 19.618 20.02 18.9524C20.0392 18.9172 20.0712 18.5588 20.3144 18.5588Z" fill="white"/>
</svg>
