<svg width="41" height="40" viewBox="0 0 41 40" fill="none" xmlns="http://www.w3.org/2000/svg">
<path d="M40.8259 20C40.8259 31.0457 31.8716 40 20.8259 40C9.78023 40 0.825928 31.0457 0.825928 20C0.825928 8.95431 9.78023 0 20.8259 0C31.8716 0 40.8259 8.95431 40.8259 20Z" fill="#737373"/>
<path d="M20.7595 33.3908C19.2171 33.3908 17.6715 33.4388 16.1291 33.3908C14.2091 33.3172 12.4779 32.7508 11.1019 31.3396C9.2715 29.4452 8.39149 26.7732 9.51789 23.8708C10.5515 21.2116 12.1675 18.914 13.7803 16.6068C14.2635 15.9124 14.8427 15.2852 15.3803 14.6196C15.6503 14.3214 15.8326 13.9544 15.9072 13.5591C15.9817 13.1638 15.9456 12.7556 15.8027 12.3796C15.4539 11.378 15.2011 10.3444 14.9099 9.32356C14.5675 8.13316 14.9099 7.66276 16.1579 7.59236C16.4235 7.59236 16.6891 7.59236 16.9547 7.59236C17.8059 7.59236 18.5899 7.56037 19.3771 7.04517C19.7983 6.74764 20.3014 6.58789 20.8171 6.58789C21.3328 6.58789 21.8359 6.74764 22.2571 7.04517C22.9824 7.50368 23.8433 7.69912 24.6955 7.59876C25.0672 7.56996 25.4406 7.56996 25.8123 7.59876C26.8011 7.69156 27.0923 8.07877 26.8363 9.06757C26.5739 10.1524 26.4011 11.2788 25.9563 12.2868C25.5115 13.2948 25.9115 13.986 26.4651 14.7316C27.6331 16.3092 28.8619 17.8516 29.9147 19.5028C31.1083 21.378 32.2827 23.2884 32.5675 25.5828C32.9067 28.3028 31.9595 30.4916 29.7579 32.0596C28.488 32.9603 26.9624 33.4292 25.4059 33.3972C23.8475 33.378 22.3051 33.3908 20.7595 33.3908ZM20.9227 31.57C22.5739 31.57 24.2251 31.57 25.8795 31.57C26.9494 31.56 27.9893 31.2151 28.8531 30.5838C29.7169 29.9524 30.3612 29.0663 30.6955 28.05C31.2427 26.5204 30.9131 25.1284 30.2763 23.7332C28.8555 20.6036 26.8075 17.8836 24.7019 15.2084C23.6395 13.858 23.6011 13.8932 21.9115 13.89C20.9515 13.89 19.9915 13.9188 19.0315 13.89C18.7437 13.8598 18.4531 13.9096 18.1918 14.0338C17.9304 14.158 17.7083 14.3518 17.5499 14.594C16.3179 16.2612 14.9035 17.794 13.7963 19.5444C12.6931 21.2341 11.7748 23.0375 11.0571 24.9236C9.87309 28.1716 12.3531 31.522 15.8059 31.57C17.5115 31.5892 19.2171 31.57 20.9227 31.57ZM20.8683 12.69H21.8283C24.1355 12.69 24.1355 12.69 24.7083 10.4148C24.9099 9.63397 24.8043 9.45476 23.9947 9.43236C23.1339 9.41316 22.3499 9.40996 21.6523 8.71236C21.1723 8.23236 20.4363 8.32196 19.8987 8.79876C19.5294 9.17999 19.0302 9.40844 18.5003 9.43876C16.7371 9.50596 16.7371 9.53476 17.1755 11.2116C17.2267 11.4164 17.3259 11.6116 17.3643 11.8196C17.3735 11.9515 17.4098 12.0802 17.471 12.1974C17.5323 12.3147 17.6171 12.418 17.7201 12.5009C17.8232 12.5839 17.9423 12.6446 18.0699 12.6793C18.1976 12.7141 18.331 12.722 18.4619 12.7028C19.2683 12.6548 20.0683 12.6804 20.8683 12.6804V12.69Z" fill="white"/>
<path d="M21.1403 18.5588C21.5179 18.5588 21.5371 18.7252 21.5531 18.962C21.5883 19.4548 22.4075 19.6564 23.2075 19.938C23.5057 20.05 23.758 20.2584 23.9243 20.53C23.9924 20.6636 24.0337 20.8093 24.0459 20.9588C24.0527 21.0134 24.0478 21.0688 24.0317 21.1214C24.0155 21.1741 23.9884 21.2226 23.9522 21.264C23.9159 21.3054 23.8713 21.3387 23.8213 21.3617C23.7713 21.3846 23.717 21.3967 23.6619 21.3972C23.5208 21.4062 23.3793 21.3866 23.2459 21.3396C22.9067 21.2084 22.6347 20.9172 22.2859 20.7636C21.7646 20.4868 21.1551 20.4271 20.5899 20.5972C20.3976 20.6665 20.2242 20.7799 20.0837 20.9282C19.9431 21.0766 19.8392 21.2558 19.7803 21.4516C19.7046 21.6155 19.6785 21.7979 19.7052 21.9765C19.7319 22.155 19.8103 22.3219 19.9307 22.4564C20.1035 22.6708 20.7915 22.834 21.0923 22.9236C21.5499 23.0548 22.0203 23.1412 22.4811 23.2628C23.6811 23.5828 24.4299 24.2932 24.4779 25.2596C24.5355 26.3988 23.8699 27.1284 22.9355 27.6596C22.5323 27.8868 21.7515 27.9412 21.7515 28.3572C21.7607 28.4125 21.758 28.4692 21.7436 28.5234C21.7293 28.5776 21.7036 28.6282 21.6683 28.6717C21.6329 28.7153 21.5888 28.7509 21.5387 28.7761C21.4886 28.8014 21.4338 28.8158 21.3778 28.8183C21.3217 28.8208 21.2658 28.8114 21.2137 28.7907C21.1615 28.77 21.1144 28.7385 21.0753 28.6983C21.0363 28.658 21.0062 28.6099 20.987 28.5572C20.9679 28.5045 20.9602 28.4483 20.9643 28.3924C20.9643 27.9956 20.2123 27.858 19.7835 27.7268C19.4764 27.6425 19.1889 27.4981 18.9379 27.302C18.6869 27.1059 18.4773 26.862 18.3211 26.5844C18.278 26.4927 18.2573 26.3921 18.2606 26.2909C18.2639 26.1896 18.2913 26.0906 18.3403 26.002C18.4095 25.9288 18.4955 25.8736 18.5909 25.8413C18.6863 25.8089 18.7881 25.8004 18.8875 25.8164C19.2239 25.9578 19.5402 26.1429 19.8283 26.3668C20.1565 26.6366 20.5505 26.8144 20.97 26.8819C21.3894 26.9494 21.8193 26.9041 22.2155 26.7508C22.4452 26.6826 22.6463 26.5413 22.7883 26.3484C22.9304 26.1555 23.0057 25.9215 23.0027 25.682C23.0316 25.4405 22.971 25.1968 22.8324 24.997C22.6939 24.7971 22.487 24.6549 22.2507 24.5972C21.6491 24.3988 21.0027 24.3156 20.4235 24.0692C19.8443 23.8228 19.1083 23.5284 18.6763 23.0484C17.9915 22.2804 18.1195 20.7412 18.9963 20.1684C19.8283 19.618 20.8459 19.618 20.8459 18.9524C20.8651 18.9172 20.8971 18.5588 21.1403 18.5588Z" fill="white"/>
</svg>
