<svg width="40" height="41" viewBox="0 0 40 41" fill="none" xmlns="http://www.w3.org/2000/svg">
<path d="M40 20.3472C40 31.3929 31.0457 40.3472 20 40.3472C8.95431 40.3472 0 31.3929 0 20.3472C0 9.30147 8.95431 0.347168 20 0.347168C31.0457 0.347168 40 9.30147 40 20.3472Z" fill="#843BE4"/>
<path d="M25.1887 34.5326H14.7316C14.9437 32.9796 13.9551 32.463 12.7579 31.8883C8.39989 29.8086 5.88567 25.5566 6.20038 20.9421H33.7542C34.3117 25.2351 31.5786 29.8086 27.2104 31.9705C25.4897 32.8256 25.4897 32.8256 25.1887 34.5326ZM31.6162 23.0082H8.3999C9.22771 27.0446 11.5948 29.5075 15.3268 30.8074C16.0452 31.0605 16.6335 31.6968 17.28 32.1586L17.1158 32.4733H22.9037C23.3535 31.7063 24.0401 31.1061 24.8603 30.7629C28.4931 29.4254 30.8055 26.9796 31.6162 23.0082Z" fill="white"/>
<path d="M31.2058 13.3276V15.404C27.3301 15.404 23.5229 15.4348 19.719 15.3835C18.7099 15.3835 18.1318 15.575 17.6187 16.5876C16.572 18.64 14.564 18.7152 12.5629 18.4929C9.82636 18.1953 7.66447 16.3139 7.69183 14.3162C7.7192 12.3869 9.8503 10.5534 12.4808 10.2456C14.824 9.97876 16.9277 10.2285 18.0258 12.8043C18.1626 13.1224 18.9665 13.3003 19.4625 13.3037C23.3416 13.3447 27.207 13.3276 31.2058 13.3276ZM13.4455 16.4439C15.2174 16.4918 16.182 15.7597 16.2162 14.3915C16.2504 13.0232 15.255 12.2433 13.5241 12.2706C11.7077 12.2946 9.76136 13.4097 9.81267 14.3983C9.86398 15.3869 11.742 16.3994 13.4455 16.4439Z" fill="white"/>
</svg>
