<svg width="41" height="41" viewBox="0 0 41 41" fill="none" xmlns="http://www.w3.org/2000/svg">
<path d="M40.8259 20.8689C40.8259 31.9146 31.8716 40.8689 20.8259 40.8689C9.78023 40.8689 0.825928 31.9146 0.825928 20.8689C0.825928 9.8232 9.78023 0.868896 20.8259 0.868896C31.8716 0.868896 40.8259 9.8232 40.8259 20.8689Z" fill="#737373"/>
<path d="M26.0146 35.0543H15.5575C15.7696 33.5013 14.781 32.9848 13.5838 32.4101C9.22582 30.3303 6.7116 26.0784 7.02631 21.4638H34.5801C35.1377 25.7568 32.4045 30.3303 28.0363 32.4922C26.3157 33.3474 26.3157 33.3474 26.0146 35.0543ZM32.4422 23.5299H9.22582C10.0536 27.5664 12.4208 30.0293 16.1528 31.3291C16.8711 31.5823 17.4595 32.2185 18.106 32.6803L17.9418 32.995H23.7296C24.1794 32.228 24.866 31.6278 25.6863 31.2847C29.319 29.9472 31.6314 27.5014 32.4422 23.5299Z" fill="white"/>
<path d="M32.0317 13.8494V15.9257C28.156 15.9257 24.3488 15.9565 20.545 15.9052C19.5359 15.9052 18.9578 16.0968 18.4446 17.1093C17.3979 19.1617 15.39 19.237 13.3888 19.0146C10.6523 18.717 8.4904 16.8356 8.51776 14.8379C8.54513 12.9087 10.6762 11.0752 13.3068 10.7673C15.6499 10.5005 17.7537 10.7502 18.8517 13.326C18.9885 13.6441 19.7924 13.822 20.2884 13.8254C24.1675 13.8665 28.0329 13.8494 32.0317 13.8494ZM14.2714 16.9656C16.0433 17.0135 17.008 16.2815 17.0422 14.9132C17.0764 13.5449 16.0809 12.765 14.3501 12.7924C12.5337 12.8163 10.5873 13.9315 10.6386 14.92C10.6899 15.9086 12.5679 16.9212 14.2714 16.9656Z" fill="white"/>
</svg>
