<svg width="41" height="41" viewBox="0 0 41 41" fill="none" xmlns="http://www.w3.org/2000/svg">
<path d="M40.5 20.3472C40.5 31.3929 31.5457 40.3472 20.5 40.3472C9.45431 40.3472 0.5 31.3929 0.5 20.3472C0.5 9.30147 9.45431 0.347168 20.5 0.347168C31.5457 0.347168 40.5 9.30147 40.5 20.3472Z" fill="#9C7FC2"/>
<path d="M25.6887 34.5326H15.2316C15.4437 32.9796 14.4551 32.463 13.2579 31.8883C8.89989 29.8086 6.38567 25.5566 6.70038 20.9421H34.2542C34.8117 25.2351 32.0786 29.8086 27.7104 31.9705C25.9897 32.8256 25.9897 32.8256 25.6887 34.5326ZM32.1162 23.0082H8.8999C9.72771 27.0446 12.0948 29.5075 15.8268 30.8074C16.5452 31.0605 17.1335 31.6968 17.78 32.1586L17.6158 32.4733H23.4037C23.8535 31.7063 24.5401 31.1061 25.3603 30.7629C28.9931 29.4254 31.3055 26.9796 32.1162 23.0082Z" fill="white"/>
<path d="M31.7058 13.3276V15.404C27.8301 15.404 24.0229 15.4348 20.219 15.3835C19.2099 15.3835 18.6318 15.575 18.1187 16.5876C17.072 18.64 15.064 18.7152 13.0629 18.4929C10.3264 18.1953 8.16447 16.3139 8.19183 14.3162C8.2192 12.3869 10.3503 10.5534 12.9808 10.2456C15.324 9.97876 17.4277 10.2285 18.5258 12.8043C18.6626 13.1224 19.4665 13.3003 19.9625 13.3037C23.8416 13.3447 27.707 13.3276 31.7058 13.3276ZM13.9455 16.4439C15.7174 16.4918 16.682 15.7597 16.7162 14.3915C16.7504 13.0232 15.755 12.2433 14.0241 12.2706C12.2077 12.2946 10.2614 13.4097 10.3127 14.3983C10.364 15.3869 12.242 16.3994 13.9455 16.4439Z" fill="white"/>
</svg>
