<svg width="40" height="40" viewBox="0 0 40 40" fill="none" xmlns="http://www.w3.org/2000/svg">
<path d="M40 20C40 31.0457 31.0457 40 20 40C8.9543 40 0 31.0457 0 20C0 8.9543 8.9543 0 20 0C31.0457 0 40 8.9543 40 20Z" fill="#0060B8"/>
<path d="M16.2607 22.9186C15.9847 23.1153 15.7524 23.3098 15.5536 23.4763C15.1926 23.7786 14.9421 23.9884 14.7402 23.9506C14.426 23.8897 14.1662 23.6226 13.9008 23.3497C13.7768 23.2222 13.6516 23.0935 13.519 22.984C13.6385 22.8764 13.7535 22.7486 13.869 22.6204C14.1226 22.3388 14.3779 22.0552 14.6852 21.9795C14.8843 21.9375 15.1459 22.1301 15.5214 22.4066C15.7298 22.56 15.9733 22.7393 16.2607 22.9186Z" fill="white"/>
<path d="M24.8653 23.9144C25.0405 24.1309 25.2498 24.3896 25.4696 24.704C25.6561 24.3576 25.8399 24.0753 25.9952 23.8366C26.261 23.4281 26.4438 23.1473 26.4156 22.8911C26.3743 22.5368 25.6726 21.9382 25.4008 22.0036C25.1614 22.0933 24.9457 22.2366 24.7704 22.4227C24.5951 22.6088 24.4647 22.8326 24.3894 23.0769C24.3452 23.2715 24.5499 23.5245 24.8653 23.9144Z" fill="white"/>
<path fill-rule="evenodd" clip-rule="evenodd" d="M8.22144 19.3926C5.7928 18.9145 5.6552 18.6049 6.76632 16.4411C7.13072 15.7315 7.49476 15.03 7.85708 14.3318C8.59952 12.9011 9.33488 11.4841 10.0515 10.0393C10.5985 8.93504 11.4069 8.47064 12.6453 8.47752C17.5645 8.51192 22.486 8.51192 27.4098 8.47752C28.6619 8.47752 29.4325 8.99697 29.976 10.0874C30.6393 11.4222 31.3268 12.7472 32.0133 14.0705L32.0137 14.0711C32.4842 14.978 32.9544 15.8842 33.416 16.792C34.3173 18.5739 34.0696 18.997 31.782 19.3376V27.6349C31.782 30.607 31.4002 30.9854 28.3902 30.9889H11.3931C8.68239 30.9889 8.23176 30.5142 8.22488 27.7553C8.21971 25.685 8.22036 23.5721 8.22101 21.4762L8.22101 21.4706C8.22123 20.7753 8.22144 20.082 8.22144 19.3926ZM29.4875 28.7701V19.2H25.1497C24.8677 19.2 24.5824 19.2108 24.2971 19.2216C22.7094 19.2815 21.1203 19.3416 20.0998 17.5454C18.3181 19.4865 16.2237 19.3396 14.1641 19.1952C12.8914 19.1059 11.6319 19.0176 10.4678 19.4236V28.7666H17.905V25.2785C17.905 23.9197 18.5655 23.0494 19.9346 23.0184C21.4001 22.9874 22.0984 23.875 22.1018 25.3163V28.7563L29.4875 28.7701ZM8.86815 17.0913C9.60079 17.0913 10.2964 17.0841 10.9666 17.0772C12.4203 17.0621 13.7539 17.0483 15.0842 17.1119C16.5944 17.1876 17.8775 16.9778 18.8682 15.6671C19.6491 14.6145 20.4644 14.9 21.3038 15.7394L21.33 15.7656C21.8663 16.302 22.5493 16.9853 23.1958 17.0259C25.0323 17.1325 26.8742 17.1159 28.8257 17.0982C29.5828 17.0914 30.3563 17.0844 31.1525 17.0844C30.8568 16.5113 30.5727 15.9539 30.2952 15.4093C29.5266 13.9013 28.8083 12.4918 28.0324 11.1194C27.8501 10.7995 27.1758 10.6172 26.7252 10.6138C22.2532 10.5794 17.7812 10.5725 13.3092 10.6138C12.8242 10.6138 12.1155 10.8786 11.9057 11.2433C11.1398 12.5785 10.4496 13.9525 9.70799 15.4287C9.43698 15.9682 9.15908 16.5214 8.86815 17.0913Z" fill="white"/>
</svg>
