<svg width="41" height="40" viewBox="0 0 41 40" fill="none" xmlns="http://www.w3.org/2000/svg">
<path d="M40.8259 20C40.8259 31.0457 31.8716 40 20.8259 40C9.78023 40 0.825928 31.0457 0.825928 20C0.825928 8.95431 9.78023 0 20.8259 0C31.8716 0 40.8259 8.95431 40.8259 20Z" fill="#737373"/>
<path d="M9.04737 19.3926C6.61873 18.9145 6.48113 18.6049 7.59225 16.4411C8.70337 14.2774 9.81104 12.1893 10.8774 10.0393C11.4244 8.93504 12.2328 8.47064 13.4712 8.47752C18.3904 8.51192 23.3119 8.51192 28.2357 8.47752C29.4878 8.47752 30.2584 8.99697 30.8019 10.0874C31.9199 12.3372 33.1067 14.5594 34.2419 16.792C35.1432 18.5739 34.8955 18.997 32.6079 19.3376C32.6079 22.0896 32.6079 24.8416 32.6079 27.6349C32.6079 30.607 32.2261 30.9854 29.2161 30.9889C23.5515 30.9889 17.8859 30.9889 12.219 30.9889C9.50832 30.9889 9.05768 30.5142 9.0508 27.7553C9.04392 24.9964 9.04737 22.1618 9.04737 19.3926ZM30.3134 28.7701V19.2C28.8239 19.2 27.3998 19.2 25.9756 19.2C24.1249 19.2 22.1297 19.6644 20.9257 17.5454C18.043 20.6861 14.3415 18.3606 11.2937 19.4236V28.7666H18.731V25.2785C18.731 23.9197 19.3914 23.0494 20.7606 23.0184C22.226 22.9874 22.9243 23.875 22.9278 25.3163C22.9278 26.4446 22.9278 27.573 22.9278 28.7563L30.3134 28.7701ZM9.69408 17.0913C12.0161 17.0913 13.9666 17.019 15.9102 17.1119C17.4203 17.1876 18.7034 16.9778 19.6942 15.6671C20.475 14.6145 21.2903 14.9 22.1297 15.7394C22.6698 16.2794 23.3646 16.9846 24.0217 17.0259C26.5707 17.1738 29.1301 17.0844 31.9784 17.0844C30.8638 14.9241 29.9144 12.9874 28.8583 11.1194C28.676 10.7995 28.0018 10.6172 27.5511 10.6138C23.0791 10.5794 18.6071 10.5725 14.1351 10.6138C13.6501 10.6138 12.9414 10.8786 12.7316 11.2433C11.6858 13.0665 10.7811 14.9619 9.69408 17.0913Z" fill="white"/>
<path d="M17.0867 22.9186C16.3092 23.4725 15.8792 24.0091 15.5662 23.9506C15.1052 23.8612 14.7612 23.328 14.345 22.984C14.7268 22.64 15.0639 22.0896 15.5111 21.9795C15.8207 21.9142 16.2817 22.4164 17.0867 22.9186Z" fill="white"/>
<path d="M26.2955 24.704C25.6798 23.8234 25.1466 23.3796 25.2154 23.0769C25.2907 22.8326 25.421 22.6088 25.5963 22.4227C25.7716 22.2366 25.9873 22.0933 26.2267 22.0036C26.4985 21.9382 27.2003 22.5368 27.2415 22.8911C27.2863 23.297 26.8012 23.7649 26.2955 24.704Z" fill="white"/>
</svg>
