<svg width="41" height="40" viewBox="0 0 41 40" fill="none" xmlns="http://www.w3.org/2000/svg">
<path d="M40.5693 20C40.5693 31.0457 31.615 40 20.5693 40C9.52364 40 0.569336 31.0457 0.569336 20C0.569336 8.9543 9.52364 0 20.5693 0C31.615 0 40.5693 8.9543 40.5693 20Z" fill="#3F81BE"/>
<path d="M16.8301 22.9186C16.554 23.1153 16.3217 23.3098 16.123 23.4763C15.762 23.7786 15.5115 23.9884 15.3096 23.9506C14.9954 23.8897 14.7355 23.6226 14.4701 23.3497C14.3461 23.2222 14.2209 23.0935 14.0884 22.984C14.2078 22.8764 14.3229 22.7486 14.4383 22.6204C14.6919 22.3388 14.9472 22.0552 15.2545 21.9795C15.4536 21.9375 15.7153 22.1301 16.0907 22.4066C16.2991 22.56 16.5427 22.7393 16.8301 22.9186Z" fill="white"/>
<path d="M25.4347 23.9144C25.6098 24.1309 25.8191 24.3896 26.0389 24.704C26.2255 24.3576 26.4092 24.0753 26.5646 23.8366C26.8304 23.4281 27.0132 23.1473 26.9849 22.8911C26.9437 22.5368 26.2419 21.9382 25.9701 22.0036C25.7307 22.0933 25.5151 22.2366 25.3397 22.4227C25.1644 22.6088 25.0341 22.8326 24.9588 23.0769C24.9145 23.2715 25.1192 23.5245 25.4347 23.9144Z" fill="white"/>
<path fill-rule="evenodd" clip-rule="evenodd" d="M8.79078 19.3926C6.36214 18.9145 6.22453 18.6049 7.33565 16.4411C7.70006 15.7315 8.06409 15.03 8.42642 14.3318C9.16885 12.9011 9.90422 11.4841 10.6209 10.0393C11.1678 8.93504 11.9762 8.47064 13.2146 8.47752C18.1338 8.51192 23.0553 8.51192 27.9791 8.47752C29.2313 8.47752 30.0018 8.99697 30.5453 10.0874C31.2086 11.4222 31.8961 12.7472 32.5827 14.0705L32.583 14.0711C33.0536 14.978 33.5237 15.8842 33.9853 16.792C34.8866 18.5739 34.6389 18.997 32.3513 19.3376V27.6349C32.3513 30.607 31.9695 30.9854 28.9595 30.9889H11.9624C9.25173 30.9889 8.80109 30.5142 8.79421 27.7553C8.78905 25.685 8.7897 23.5721 8.79035 21.4762L8.79035 21.4706C8.79057 20.7753 8.79078 20.082 8.79078 19.3926ZM30.0568 28.7701V19.2H25.719C25.4371 19.2 25.1518 19.2108 24.8664 19.2216C23.2787 19.2815 21.6897 19.3416 20.6691 17.5454C18.8874 19.4865 16.793 19.3396 14.7335 19.1952C13.4607 19.1059 12.2012 19.0176 11.0371 19.4236V28.7666H18.4744V25.2785C18.4744 23.9197 19.1349 23.0494 20.504 23.0184C21.9694 22.9874 22.6677 23.875 22.6712 25.3163V28.7563L30.0568 28.7701ZM9.43749 17.0913C10.1701 17.0913 10.8658 17.0841 11.5359 17.0772C12.9896 17.0621 14.3232 17.0483 15.6536 17.1119C17.1637 17.1876 18.4469 16.9778 19.4376 15.6671C20.2185 14.6145 21.0337 14.9 21.8731 15.7394L21.8994 15.7656C22.4356 16.302 23.1187 16.9853 23.7651 17.0259C25.6017 17.1325 27.4436 17.1159 29.395 17.0982C30.1521 17.0914 30.9257 17.0844 31.7218 17.0844C31.4261 16.5113 31.142 15.9539 30.8645 15.4093C30.096 13.9013 29.3776 12.4918 28.6017 11.1194C28.4194 10.7995 27.7452 10.6172 27.2945 10.6138C22.8225 10.5794 18.3505 10.5725 13.8785 10.6138C13.3935 10.6138 12.6849 10.8786 12.475 11.2433C11.7091 12.5785 11.0189 13.9525 10.2773 15.4287C10.0063 15.9682 9.72842 16.5214 9.43749 17.0913Z" fill="white"/>
</svg>
