<svg width="41" height="40" viewBox="0 0 41 40" fill="none" xmlns="http://www.w3.org/2000/svg">
<path d="M40.8259 20C40.8259 31.0457 31.8716 40 20.8259 40C9.78023 40 0.825928 31.0457 0.825928 20C0.825928 8.95431 9.78023 0 20.8259 0C31.8716 0 40.8259 8.95431 40.8259 20Z" fill="#737373"/>
<path d="M26.1989 24.1155C28.0157 22.9932 29.666 21.9456 31.3451 20.9583C32.5534 20.2379 33.69 20.4359 34.399 21.4089C35.1079 22.3819 34.9357 23.639 33.7647 24.5374C30.8514 26.779 27.9038 28.9747 24.9733 31.1962C24.4674 31.5997 23.8619 31.8591 23.2209 31.947C22.5798 32.0349 21.9269 31.948 21.331 31.6956C19.4109 30.9924 17.4362 30.4213 15.5534 29.6234C13.6705 28.8254 12.135 29.0493 10.6425 30.3323C10.2784 30.6346 9.8949 30.9126 9.49441 31.1646C8.85436 31.5837 8.46401 31.3426 8.4554 30.6337C8.42383 28.3892 8.42096 26.1418 8.47263 23.8973C8.50838 23.7241 8.58301 23.5612 8.69091 23.421C8.7988 23.2808 8.93713 23.1669 9.09546 23.088C10.4875 22.4709 11.8709 21.6701 13.3376 21.4319C14.8688 21.1743 16.4383 21.2645 17.9299 21.6959C20.226 22.4192 22.4274 23.5214 24.6088 24.5833C25.0651 24.8043 25.6019 25.6223 25.5129 26.0414C25.3349 26.8766 24.5715 26.9024 23.7707 26.6384C21.9108 26.0442 20.0395 25.5133 18.1451 25.0081C17.8122 24.9191 17.4104 25.0999 17.0372 25.1545C17.3013 25.4616 17.5108 25.938 17.8409 26.0471C19.6003 26.6384 21.3971 27.1119 23.1651 27.6745C24.2758 28.0275 25.3349 28.1825 26.2046 27.2181C27.0743 26.2538 26.9279 25.2176 26.1989 24.1155Z" fill="white"/>
<path d="M24.2415 20.5017C22.7633 20.5017 21.2823 20.5275 19.8042 20.4845C19.4712 20.4845 18.9431 20.3008 18.8656 20.0769C18.8338 19.8934 18.8483 19.7048 18.908 19.5283C18.9676 19.3519 19.0705 19.1931 19.2072 19.0666C19.8943 18.568 20.6276 18.1365 21.3971 17.7779C23.0504 16.9915 23.2828 16.2337 22.129 14.8647C20.8461 13.3377 20.9121 11.5295 21.2192 9.79592C21.5062 8.17714 23.3173 7.64615 24.9303 8.28046C25.9923 8.69377 27.1059 8.95782 27.2265 10.2752C27.3585 11.851 27.4331 13.4468 26.3224 14.813C25.137 16.2682 25.3666 17.0116 27.0944 17.8123C27.8288 18.1352 28.524 18.5406 29.1667 19.0207C29.3013 19.1699 29.4023 19.3463 29.4627 19.5379C29.5231 19.7296 29.5416 19.932 29.5169 20.1314C29.5025 20.2836 28.8912 20.4615 28.5496 20.4701C27.1059 20.516 25.6737 20.5017 24.2415 20.5017Z" fill="white"/>
</svg>
