<svg width="40" height="41" viewBox="0 0 40 41" fill="none" xmlns="http://www.w3.org/2000/svg">
<path d="M40 20.3472C40 31.3929 31.0457 40.3472 20 40.3472C8.95431 40.3472 0 31.3929 0 20.3472C0 9.30147 8.95431 0.347168 20 0.347168C31.0457 0.347168 40 9.30147 40 20.3472Z" fill="#2A83D5"/>
<path d="M25.3729 24.4626C27.1898 23.3404 28.8401 22.2928 30.5192 21.3054C31.7275 20.585 32.8641 20.7831 33.573 21.7561C34.282 22.7291 34.1098 23.9862 32.9387 24.8846C30.0255 27.1262 27.0778 29.3219 24.1474 31.5434C23.6415 31.9468 23.036 32.2062 22.3949 32.2941C21.7539 32.382 21.1009 32.2952 20.5051 32.0428C18.585 31.3396 16.6103 30.7684 14.7274 29.9705C12.8446 29.1726 11.3091 29.3965 9.81656 30.6795C9.45249 30.9817 9.06897 31.2598 8.66848 31.5118C8.02843 31.9309 7.63809 31.6898 7.62948 30.9808C7.5979 28.7363 7.59504 26.489 7.6467 24.2445C7.68245 24.0712 7.75708 23.9084 7.86498 23.7681C7.97287 23.6279 8.1112 23.5141 8.26953 23.4351C9.66157 22.818 11.045 22.0172 12.5117 21.779C14.0428 21.5215 15.6124 21.6117 17.1039 22.0431C19.4001 22.7664 21.6015 23.8685 23.7829 24.9305C24.2392 25.1515 24.7759 25.9695 24.687 26.3885C24.509 27.2238 23.7455 27.2496 22.9448 26.9855C21.0849 26.3914 19.2135 25.8604 17.3192 25.3553C16.9863 25.2663 16.5844 25.4471 16.2113 25.5016C16.4754 25.8088 16.6849 26.2852 17.015 26.3943C18.7744 26.9855 20.5711 27.4591 22.3392 28.0217C23.4499 28.3747 24.509 28.5297 25.3787 27.5653C26.2483 26.6009 26.102 25.5648 25.3729 24.4626Z" fill="white"/>
<path d="M23.4156 20.8489C21.9374 20.8489 20.4564 20.8747 18.9782 20.8316C18.6453 20.8316 18.1172 20.6479 18.0397 20.4241C18.0078 20.2405 18.0224 20.052 18.082 19.8755C18.1417 19.699 18.2446 19.5403 18.3813 19.4138C19.0684 18.9152 19.8017 18.4837 20.5712 18.1251C22.2244 17.3386 22.4569 16.5809 21.3031 15.2118C20.0201 13.6849 20.0861 11.8767 20.3933 10.1431C20.6803 8.52431 22.4914 7.99332 24.1044 8.62763C25.1664 9.04094 26.28 9.30499 26.4005 10.6224C26.5326 12.1981 26.6072 13.794 25.4964 15.1602C24.311 16.6153 24.5407 17.3587 26.2685 18.1595C27.0029 18.4824 27.6981 18.8878 28.3408 19.3678C28.4754 19.517 28.5764 19.6934 28.6368 19.8851C28.6972 20.0768 28.7157 20.2792 28.6909 20.4786C28.6766 20.6307 28.0652 20.8087 27.7237 20.8173C26.28 20.8632 24.8478 20.8489 23.4156 20.8489Z" fill="white"/>
</svg>
