<svg width="40" height="41" viewBox="0 0 40 41" fill="none" xmlns="http://www.w3.org/2000/svg">
<path d="M40 20.0415C40 31.0872 31.0457 40.0415 20 40.0415C8.95431 40.0415 0 31.0872 0 20.0415C0 8.99581 8.95431 0.0415039 20 0.0415039C31.0457 0.0415039 40 8.99581 40 20.0415Z" fill="#FD6D04"/>
<path d="M32.6811 30.0976H30.1571L30.0165 27.7998H9.84918L9.69334 30.0762H7.29771V9.98525H9.74223V18.7122H11.1051C10.9187 16.1974 11.6154 14.4129 14.5641 15.2288C16.1225 15.6596 16.1713 17.1416 15.9422 18.6144C16.6633 18.8344 17.2408 19.1003 17.5433 18.0033C17.8458 16.9063 18.7473 16.2708 19.9512 16.2646C23.3124 16.2646 26.6737 16.2219 30.0349 16.2646C31.6758 16.2891 32.6352 17.1813 32.6689 18.8192C32.7361 22.5349 32.6811 26.2414 32.6811 30.0976ZM30.0135 21.389H9.90418V25.0558H30.0135V21.389Z" fill="white"/>
</svg>
