<svg width="41" height="41" viewBox="0 0 41 41" fill="none" xmlns="http://www.w3.org/2000/svg">
<path d="M40.5 20.0415C40.5 31.0872 31.5457 40.0415 20.5 40.0415C9.45431 40.0415 0.5 31.0872 0.5 20.0415C0.5 8.99581 9.45431 0.0415039 20.5 0.0415039C31.5457 0.0415039 40.5 8.99581 40.5 20.0415Z" fill="#F18B54"/>
<path d="M33.1811 30.0976H30.6571L30.5165 27.7998H10.3492L10.1933 30.0762H7.79771V9.98525H10.2422V18.7122H11.6051C11.4187 16.1974 12.1154 14.4129 15.0641 15.2288C16.6225 15.6596 16.6713 17.1416 16.4422 18.6144C17.1633 18.8344 17.7408 19.1003 18.0433 18.0033C18.3458 16.9063 19.2473 16.2708 20.4512 16.2646C23.8124 16.2646 27.1737 16.2219 30.5349 16.2646C32.1758 16.2891 33.1352 17.1813 33.1689 18.8192C33.2361 22.5349 33.1811 26.2414 33.1811 30.0976ZM30.5135 21.389H10.4042V25.0558H30.5135V21.389Z" fill="white"/>
</svg>
