<svg width="41" height="41" viewBox="0 0 41 41" fill="none" xmlns="http://www.w3.org/2000/svg">
<path d="M40.8259 20.5C40.8259 31.5457 31.8716 40.5 20.8259 40.5C9.78023 40.5 0.825928 31.5457 0.825928 20.5C0.825928 9.45431 9.78023 0.5 20.8259 0.5C31.8716 0.5 40.8259 9.45431 40.8259 20.5Z" fill="#737373"/>
<path d="M33.507 30.5561H30.983L30.8424 28.2583H10.6751L10.5192 30.5347H8.12358V10.4438H10.5681V19.1707H11.9309C11.7445 16.6559 12.4412 14.8714 15.3899 15.6873C16.9483 16.1181 16.9972 17.6001 16.7681 19.0729C17.4892 19.2929 18.0667 19.5588 18.3692 18.4618C18.6717 17.3648 19.5731 16.7293 20.7771 16.7231C24.1383 16.7231 27.4995 16.6804 30.8608 16.7231C32.5016 16.7476 33.4611 17.6398 33.4947 19.2777C33.562 22.9934 33.507 26.6999 33.507 30.5561ZM30.8394 21.8475H10.7301V25.5143H30.8394V21.8475Z" fill="white"/>
</svg>
