<svg width="27" height="27" viewBox="0 0 27 27" fill="none" xmlns="http://www.w3.org/2000/svg">
<path d="M26.3604 13.1401C26.3604 20.2779 20.574 26.0642 13.4363 26.0642C6.29851 26.0642 0.512207 20.2779 0.512207 13.1401C0.512207 6.00237 6.29851 0.216064 13.4363 0.216064C20.574 0.216064 26.3604 6.00237 26.3604 13.1401Z" fill="#FFD43C"/>
<path d="M16.8873 13.1401H17.8733V12.0227L18.8429 12.5814L19.3359 11.7269L18.3663 11.1681L19.3359 10.6094L18.8429 9.75486L17.8733 10.3136V9.19613H16.8873V10.3136L15.9177 9.75486L15.4247 10.6094L16.3943 11.1681L15.4247 11.7269L15.9177 12.5814L16.8873 12.0227V13.1401ZM6.86293 19.0562C6.5014 19.0562 6.19179 18.9273 5.93411 18.6696C5.67644 18.412 5.54782 18.1026 5.54826 17.7415V8.53879C5.54826 8.17726 5.6771 7.86765 5.93477 7.60998C6.19245 7.3523 6.50183 7.22368 6.86293 7.22412H20.0096C20.3712 7.22412 20.6808 7.35296 20.9384 7.61064C21.1961 7.86831 21.3247 8.1777 21.3243 8.53879V17.7415C21.3243 18.103 21.1955 18.4126 20.9378 18.6703C20.6801 18.928 20.3707 19.0566 20.0096 19.0562H6.86293ZM15.9999 17.7415H20.0096V8.53879H6.86293V17.7415H6.92866C7.3888 16.9198 8.02422 16.2761 8.83493 15.8102C9.64565 15.3444 10.5221 15.1117 11.4643 15.1121C12.4065 15.1121 13.2829 15.3451 14.0936 15.8109C14.9043 16.2767 15.5398 16.9203 15.9999 17.7415ZM11.4643 14.4548C12.0121 14.4548 12.4777 14.2631 12.8611 13.8796C13.2446 13.4962 13.4363 13.0306 13.4363 12.4828C13.4363 11.935 13.2446 11.4694 12.8611 11.086C12.4777 10.7025 12.0121 10.5108 11.4643 10.5108C10.9165 10.5108 10.4509 10.7025 10.0674 11.086C9.68399 11.4694 9.49227 11.935 9.49227 12.4828C9.49227 13.0306 9.68399 13.4962 10.0674 13.8796C10.4509 14.2631 10.9165 14.4548 11.4643 14.4548ZM8.53913 17.7415H14.3894C14.0169 17.3252 13.5759 17.002 13.0662 16.7719C12.5565 16.5418 12.0226 16.4268 11.4643 16.4268C10.9055 16.4268 10.3742 16.5418 9.87024 16.7719C9.36628 17.002 8.92258 17.3252 8.53913 17.7415ZM11.4643 13.1401C11.278 13.1401 11.1218 13.077 10.9956 12.9508C10.8694 12.8246 10.8065 12.6686 10.8069 12.4828C10.8069 12.2966 10.87 12.1403 10.9963 12.0141C11.1225 11.8879 11.2785 11.825 11.4643 11.8255C11.6505 11.8255 11.8067 11.8886 11.933 12.0148C12.0592 12.141 12.122 12.297 12.1216 12.4828C12.1216 12.669 12.0585 12.8253 11.9323 12.9515C11.8061 13.0777 11.6501 13.1406 11.4643 13.1401Z" fill="white"/>
</svg>
