<svg width="26" height="27" viewBox="0 0 26 27" fill="none" xmlns="http://www.w3.org/2000/svg">
<path d="M26 13.793C26 20.9307 20.2137 26.717 13.0759 26.717C5.93816 26.717 0.151855 20.9307 0.151855 13.793C0.151855 6.6552 5.93816 0.868896 13.0759 0.868896C20.2137 0.868896 26 6.6552 26 13.793Z" fill="#5F5F5F"/>
<path fill-rule="evenodd" clip-rule="evenodd" d="M14.2097 6.66797C14.5782 6.66812 14.9417 6.75404 15.2713 6.91893L16.88 7.72326C17.3629 7.96473 17.7914 8.30245 18.1389 8.71565C18.4865 9.12886 18.7459 9.6088 18.9011 10.126L20.6918 16.0943C20.7991 16.4515 20.7768 16.8351 20.6289 17.1775C20.4811 17.5199 20.2171 17.799 19.8835 17.9658L19.0824 18.3656C18.9271 18.4433 18.7507 18.4677 18.5802 18.4353C18.4097 18.4028 18.2545 18.3152 18.1387 18.1859L17.75 17.7513L17.5378 19.1383C17.4056 19.6478 17.108 20.0991 16.6916 20.4212C16.2752 20.7433 15.7637 20.918 15.2372 20.918H10.7627C10.2363 20.918 9.72479 20.7433 9.30842 20.4212C8.89204 20.0991 8.59439 19.6478 8.46217 19.1383L8.25 17.7513L7.86208 18.1859C7.74619 18.3154 7.59094 18.4031 7.42026 18.4356C7.24958 18.468 7.07296 18.4435 6.91762 18.3656L6.11646 17.9658C5.7829 17.799 5.51892 17.5199 5.37105 17.1775C5.22318 16.8351 5.20091 16.4515 5.30817 16.0943L7.09892 10.126C7.25412 9.6088 7.51349 9.12886 7.86107 8.71565C8.20865 8.30245 8.63709 7.96473 9.12004 7.72326L10.7279 6.91893C11.0578 6.75392 11.4215 6.66799 11.7903 6.66797H14.2097ZM14.2097 8.2513H11.7903C11.6985 8.25141 11.6075 8.26748 11.5212 8.2988L11.4365 8.33522L10.6765 8.71522L13 12.3284L15.3235 8.71364L14.5635 8.33364C14.4814 8.29278 14.3927 8.26653 14.3015 8.25605L14.2097 8.2513Z" fill="white"/>
</svg>
