<svg width="27" height="27" viewBox="0 0 27 27" fill="none" xmlns="http://www.w3.org/2000/svg">
<path d="M26.3604 13.6399C26.3604 20.7777 20.574 26.564 13.4363 26.564C6.29851 26.564 0.512207 20.7777 0.512207 13.6399C0.512207 6.50212 6.29851 0.71582 13.4363 0.71582C20.574 0.71582 26.3604 6.50212 26.3604 13.6399Z" fill="#E9493E"/>
<path d="M11.3481 15.8032V16.1942C11.3481 16.9946 11.666 17.7622 12.232 18.3281C12.798 18.8941 13.5656 19.2121 14.366 19.2121C15.1664 19.2121 15.934 18.8941 16.5 18.3281C17.0659 17.7622 17.3839 16.9946 17.3839 16.1942V15.0742C16.9362 14.916 16.5589 14.6046 16.3186 14.1951C16.0784 13.7856 15.9906 13.3044 16.0709 12.8364C16.1511 12.3685 16.3943 11.9439 16.7572 11.6379C17.1202 11.3319 17.5797 11.164 18.0545 11.164C18.5293 11.164 18.9888 11.3319 19.3518 11.6379C19.7148 11.9439 19.9579 12.3685 20.0381 12.8364C20.1184 13.3044 20.0306 13.7856 19.7904 14.1951C19.5501 14.6046 19.1728 14.916 18.7252 15.0742V16.1942C18.7252 17.3503 18.2659 18.4591 17.4484 19.2766C16.6309 20.0941 15.5221 20.5534 14.366 20.5534C13.2099 20.5534 12.1011 20.0941 11.2836 19.2766C10.4661 18.4591 10.0068 17.3503 10.0068 16.1942V15.8032C9.06919 15.6444 8.21807 15.1588 7.60429 14.4325C6.99051 13.7061 6.65371 12.7859 6.65358 11.835V8.48178C6.65358 8.12605 6.7949 7.78489 7.04644 7.53335C7.29798 7.28181 7.63914 7.14049 7.99487 7.14049H8.66551C8.84338 7.14049 9.01396 7.21115 9.13973 7.33692C9.2655 7.46269 9.33616 7.63327 9.33616 7.81114C9.33616 7.989 9.2655 8.15958 9.13973 8.28535C9.01396 8.41112 8.84338 8.48178 8.66551 8.48178H7.99487V11.835C7.99487 12.5465 8.2775 13.2288 8.78058 13.7319C9.28366 14.2349 9.96598 14.5176 10.6774 14.5176C11.3889 14.5176 12.0712 14.2349 12.5743 13.7319C13.0774 13.2288 13.36 12.5465 13.36 11.835V8.48178H12.6894C12.5115 8.48178 12.3409 8.41112 12.2152 8.28535C12.0894 8.15958 12.0187 7.989 12.0187 7.81114C12.0187 7.63327 12.0894 7.46269 12.2152 7.33692C12.3409 7.21115 12.5115 7.14049 12.6894 7.14049H13.36C13.7157 7.14049 14.0569 7.28181 14.3084 7.53335C14.56 7.78489 14.7013 8.12605 14.7013 8.48178V11.835C14.7012 12.7859 14.3644 13.7061 13.7506 14.4325C13.1368 15.1588 12.2857 15.6444 11.3481 15.8032ZM18.0545 13.8469C18.2324 13.8469 18.403 13.7763 18.5287 13.6505C18.6545 13.5247 18.7252 13.3541 18.7252 13.1763C18.7252 12.9984 18.6545 12.8278 18.5287 12.7021C18.403 12.5763 18.2324 12.5056 18.0545 12.5056C17.8766 12.5056 17.7061 12.5763 17.5803 12.7021C17.4545 12.8278 17.3839 12.9984 17.3839 13.1763C17.3839 13.3541 17.4545 13.5247 17.5803 13.6505C17.7061 13.7763 17.8766 13.8469 18.0545 13.8469Z" fill="white"/>
</svg>
