<svg width="26" height="27" viewBox="0 0 26 27" fill="none" xmlns="http://www.w3.org/2000/svg">
<path d="M25.8953 13.293C25.8953 20.4307 20.109 26.217 12.9712 26.217C5.83342 26.217 0.0471191 20.4307 0.0471191 13.293C0.0471191 6.1552 5.83342 0.368896 12.9712 0.368896C20.109 0.368896 25.8953 6.1552 25.8953 13.293Z" fill="#6EA4D5"/>
<path d="M15.4624 15.8103C16.4823 15.1803 17.4087 14.5922 18.3513 14.0379C19.0296 13.6335 19.6677 13.7447 20.0657 14.2909C20.4636 14.8371 20.367 15.5428 19.7096 16.0471C18.0742 17.3055 16.4194 18.5381 14.7744 19.7852C14.4904 20.0117 14.1505 20.1573 13.7906 20.2066C13.4307 20.256 13.0642 20.2072 12.7297 20.0655C11.6518 19.6708 10.5432 19.3502 9.48627 18.9022C8.42929 18.4543 7.56728 18.58 6.72943 19.3002C6.52505 19.4699 6.30976 19.626 6.08494 19.7675C5.72563 20.0027 5.5065 19.8674 5.50166 19.4694C5.48394 18.2094 5.48233 16.9478 5.51133 15.6878C5.5314 15.5905 5.5733 15.4991 5.63387 15.4204C5.69444 15.3417 5.77209 15.2778 5.86097 15.2334C6.64243 14.887 7.41904 14.4375 8.24239 14.3038C9.10196 14.1592 9.98304 14.2098 10.8204 14.452C12.1094 14.858 13.3452 15.4767 14.5697 16.0729C14.8259 16.197 15.1272 16.6562 15.0773 16.8914C14.9774 17.3603 14.5488 17.3748 14.0992 17.2265C13.0552 16.893 12.0046 16.5949 10.9412 16.3114C10.7543 16.2614 10.5287 16.3629 10.3193 16.3935C10.4675 16.5659 10.5851 16.8334 10.7704 16.8946C11.7581 17.2265 12.7668 17.4924 13.7593 17.8082C14.3828 18.0064 14.9774 18.0934 15.4656 17.552C15.9538 17.0106 15.8716 16.429 15.4624 15.8103Z" fill="white"/>
<path d="M14.3635 13.7816C13.5337 13.7816 12.7023 13.7961 11.8726 13.7719C11.6856 13.7719 11.3892 13.6688 11.3457 13.5431C11.3278 13.4401 11.336 13.3342 11.3695 13.2352C11.4029 13.1361 11.4607 13.047 11.5374 12.976C11.9231 12.6961 12.3348 12.4538 12.7668 12.2525C13.6949 11.811 13.8254 11.3857 13.1777 10.6171C12.4574 9.75992 12.4945 8.74484 12.6669 7.77165C12.828 6.86291 13.8447 6.56484 14.7502 6.92092C15.3464 7.15294 15.9716 7.30117 16.0392 8.04073C16.1133 8.9253 16.1552 9.82115 15.5317 10.5881C14.8662 11.405 14.9951 11.8223 15.9651 12.2718C16.3774 12.4531 16.7676 12.6807 17.1284 12.9502C17.204 13.0339 17.2607 13.133 17.2946 13.2406C17.3285 13.3481 17.3389 13.4618 17.325 13.5737C17.3169 13.6591 16.9737 13.759 16.782 13.7639C15.9715 13.7896 15.1675 13.7816 14.3635 13.7816Z" fill="white"/>
</svg>
