<svg width="128" height="128" viewBox="0 0 128 128" fill="none" xmlns="http://www.w3.org/2000/svg">
<path d="M127.125 64.0361C127.125 98.8991 98.863 127.161 64 127.161C29.137 127.161 0.875 98.8991 0.875 64.0361C0.875 29.1732 29.137 0.911133 64 0.911133C98.863 0.911133 127.125 29.1732 127.125 64.0361Z" fill="#D9D9D9"/>
<path d="M63.9998 65.3014C69.0262 65.3014 73.1009 61.2266 73.1009 56.2002C73.1009 51.1738 69.0262 47.0991 63.9998 47.0991C58.9733 47.0991 54.8986 51.1738 54.8986 56.2002C54.8986 61.2266 58.9733 65.3014 63.9998 65.3014Z" fill="white"/>
<path d="M62.8202 67.1531C55.1875 67.1531 49 73.3406 49 80.9733H79C79 73.3406 72.8125 67.1531 65.1798 67.1531H62.8202Z" fill="white"/>
</svg>
