<svg width="27" height="27" viewBox="0 0 27 27" fill="none" xmlns="http://www.w3.org/2000/svg">
<path d="M26.3604 13.738C26.3604 20.8758 20.574 26.6621 13.4363 26.6621C6.29851 26.6621 0.512207 20.8758 0.512207 13.738C0.512207 6.60027 6.29851 0.813965 13.4363 0.813965C20.574 0.813965 26.3604 6.60027 26.3604 13.738Z" fill="#87C96F"/>
<path d="M14.8754 9.37173C15.1444 9.96705 15.2724 10.6165 15.2493 11.2693C15.2493 12.8101 14.156 15.0759 13.2723 16.5203L12.3434 8.90158L8.4292 9.26977L10.2248 19.9813H14.6885C16.6427 17.4097 19.0558 13.7504 19.0558 10.9181C19.0784 10.1208 18.8699 9.33389 18.4554 8.65234L14.8754 9.37173Z" fill="white"/>
</svg>
