<svg width="31" height="31" viewBox="0 0 31 31" fill="none" xmlns="http://www.w3.org/2000/svg">
<path d="M30.5 15.8325C30.5 24.1168 23.7843 30.8325 15.5 30.8325C7.21573 30.8325 0.5 24.1168 0.5 15.8325C0.5 7.54825 7.21573 0.83252 15.5 0.83252C23.7843 0.83252 30.5 7.54825 30.5 15.8325Z" fill="#55AE35"/>
<path d="M12.1019 19.2023C14.4401 21.5405 17.288 23.3447 19.61 23.3447C20.6537 23.3447 21.5679 22.9806 22.3042 22.1715C22.7329 21.6942 23 21.1359 23 20.5858C23 20.1813 22.8462 19.7929 22.4579 19.5178L19.9822 17.7541C19.6019 17.4952 19.2864 17.3657 18.9951 17.3657C18.6229 17.3657 18.2993 17.5761 17.9272 17.9402L17.3527 18.5065C17.2637 18.5955 17.1505 18.6359 17.0453 18.6359C16.9158 18.6359 16.8026 18.5874 16.7136 18.547C16.22 18.2799 15.3624 17.5437 14.5615 16.7508C13.7686 15.958 13.0323 15.1003 12.7734 14.5987C12.7249 14.5097 12.6845 14.3965 12.6845 14.2751C12.6845 14.1699 12.7168 14.0648 12.8058 13.9758L13.3722 13.3852C13.7362 13.013 13.9466 12.6893 13.9466 12.3172C13.9466 12.0259 13.8172 11.7104 13.5501 11.3302L11.8107 8.87869C11.5275 8.49034 11.1311 8.32043 10.6942 8.32043C10.1602 8.32043 9.60193 8.56314 9.13267 9.02433C8.34789 9.77676 8 10.7072 8 11.7347C8 14.0567 9.77184 16.8722 12.1019 19.2023Z" fill="white"/>
</svg>
