<svg width="31" height="31" viewBox="0 0 31 31" fill="none" xmlns="http://www.w3.org/2000/svg">
<path d="M30.1162 15.8325C30.1162 24.1168 23.4005 30.8325 15.1162 30.8325C6.83194 30.8325 0.116211 24.1168 0.116211 15.8325C0.116211 7.54825 6.83194 0.83252 15.1162 0.83252C23.4005 0.83252 30.1162 7.54825 30.1162 15.8325Z" fill="#0AAACD"/>
<path d="M18.1323 11.7586C18.5442 11.7157 18.913 12.0149 18.9559 12.4269C19.1985 14.7554 18.8305 16.5309 17.6417 17.6096C16.6253 18.5319 15.1832 18.7826 13.5459 18.6537V20.779L8.69434 17.978L13.5459 15.1769V17.1484C15.0555 17.286 16.0419 17.0358 16.6337 16.4988C17.2848 15.908 17.6902 14.7538 17.464 12.5823C17.4211 12.1703 17.7203 11.8015 18.1323 11.7586Z" fill="white"/>
<path fill-rule="evenodd" clip-rule="evenodd" d="M15.1162 5.14514C21.0188 5.14514 25.8037 9.9301 25.8037 15.8326C25.8037 21.7352 21.0188 26.5201 15.1162 26.5201C9.21367 26.5201 4.42871 21.7352 4.42871 15.8326C4.42871 9.9301 9.21367 5.14514 15.1162 5.14514ZM15.1162 6.92639C10.1974 6.92639 6.20996 10.9139 6.20996 15.8326C6.20996 20.7514 10.1974 24.7389 15.1162 24.7389C20.035 24.7389 24.0225 20.7514 24.0225 15.8326C24.0225 10.9139 20.035 6.92639 15.1162 6.92639Z" fill="white"/>
</svg>
