<svg width="31" height="31" viewBox="0 0 31 31" fill="none" xmlns="http://www.w3.org/2000/svg">
<path d="M30.7324 15.8325C30.7324 24.1168 24.0167 30.8325 15.7324 30.8325C7.44815 30.8325 0.732422 24.1168 0.732422 15.8325C0.732422 7.54825 7.44815 0.83252 15.7324 0.83252C24.0167 0.83252 30.7324 7.54825 30.7324 15.8325Z" fill="#2772D2"/>
<path fill-rule="evenodd" clip-rule="evenodd" d="M6.35742 15.8325C6.35742 10.6575 10.548 6.45752 15.723 6.45752C20.9074 6.45752 25.1074 10.6575 25.1074 15.8325C25.1074 21.0075 20.9074 25.2075 15.723 25.2075C10.548 25.2075 6.35742 21.0075 6.35742 15.8325ZM19.4543 12.0825H22.2199C21.3199 10.5356 19.8855 9.33564 18.1605 8.74502C18.723 9.78564 19.1543 10.9106 19.4543 12.0825ZM15.7324 8.37002C16.5105 9.49502 17.1199 10.7419 17.523 12.0825H13.9418C14.3449 10.7419 14.9543 9.49502 15.7324 8.37002ZM8.23242 15.8325C8.23242 16.4794 8.32617 17.1075 8.47617 17.7075H11.6449C11.5699 17.0888 11.5137 16.47 11.5137 15.8325C11.5137 15.195 11.5699 14.5763 11.6449 13.9575H8.47617C8.32617 14.5575 8.23242 15.1856 8.23242 15.8325ZM9.24492 19.5825H12.0105C12.3105 20.7544 12.7418 21.8794 13.3043 22.92C11.5793 22.3294 10.1449 21.1388 9.24492 19.5825ZM9.24492 12.0825H12.0105C12.3105 10.9106 12.7418 9.78564 13.3043 8.74502C11.5793 9.33564 10.1449 10.5263 9.24492 12.0825ZM15.7324 23.295C14.9543 22.17 14.3449 20.9231 13.9418 19.5825H17.523C17.1199 20.9231 16.5105 22.17 15.7324 23.295ZM13.3887 15.8325C13.3887 16.47 13.4543 17.0888 13.5387 17.7075H17.9262C18.0105 17.0888 18.0762 16.47 18.0762 15.8325C18.0762 15.195 18.0105 14.5669 17.9262 13.9575H13.5387C13.4543 14.5669 13.3887 15.195 13.3887 15.8325ZM18.1605 22.92C18.723 21.8794 19.1543 20.7544 19.4543 19.5825H22.2199C21.3199 21.1294 19.8855 22.3294 18.1605 22.92ZM19.9512 15.8325C19.9512 16.47 19.8949 17.0888 19.8199 17.7075H22.9887C23.1387 17.1075 23.2324 16.4794 23.2324 15.8325C23.2324 15.1856 23.1387 14.5575 22.9887 13.9575H19.8199C19.8949 14.5763 19.9512 15.195 19.9512 15.8325Z" fill="#FCFCFC"/>
</svg>
